<svg width="45" height="30" viewBox="0 0 45 30" fill="none" xmlns="http://www.w3.org/2000/svg">
<path fill-rule="evenodd" clip-rule="evenodd" d="M14.2123 0.00319189C14.1616 0.0068923 13.9877 0.0190112 13.8256 0.0301124C13.6636 0.0412137 13.3904 0.066543 13.2185 0.0864142C13.0466 0.106285 12.7939 0.139534 12.6569 0.16033C12.52 0.181108 12.2257 0.234412 12.0029 0.278762C11.7802 0.323111 11.4637 0.393308 11.2996 0.434771C11.1356 0.476234 10.8746 0.547208 10.7197 0.592483C10.5647 0.637757 10.2918 0.724717 10.1131 0.7857C9.93447 0.846683 9.63206 0.958472 9.44112 1.03411C9.25018 1.10976 8.96969 1.22758 8.81779 1.29595C8.6659 1.36431 8.38007 1.50254 8.18261 1.60314C7.98515 1.70372 7.69103 1.86221 7.52901 1.95533C7.36699 2.04845 7.09358 2.21441 6.92144 2.32413C6.74929 2.43386 6.47174 2.62147 6.30466 2.74105C6.13758 2.86063 5.88074 3.05246 5.73392 3.16732C5.58709 3.28218 5.35925 3.46887 5.22761 3.58218C5.09597 3.6955 4.84607 3.92145 4.67227 4.08428C4.49847 4.24712 4.22368 4.52326 4.06164 4.69792C3.89961 4.87258 3.67468 5.12371 3.5618 5.256C3.44892 5.38829 3.2535 5.62974 3.12755 5.79256C3.0016 5.95538 2.79707 6.23432 2.67303 6.4124C2.549 6.5905 2.36746 6.86526 2.26964 7.02297C2.17181 7.1807 2.01592 7.44295 1.92324 7.60576C1.83054 7.76858 1.65627 8.10162 1.53599 8.34585C1.4157 8.59007 1.25509 8.93727 1.17907 9.11738C1.10305 9.2975 0.97911 9.61389 0.903606 9.82046C0.82812 10.027 0.728534 10.3168 0.682285 10.4643C0.636036 10.6119 0.557328 10.8829 0.50736 11.0666C0.45741 11.2503 0.38279 11.5546 0.341567 11.7427C0.300326 11.9309 0.237949 12.2552 0.20293 12.4634C0.167931 12.6715 0.122584 12.9751 0.102184 13.1379C0.0817663 13.3007 0.0504856 13.6046 0.0326452 13.8132C0.00801099 14.1012 0.000167802 14.3862 2.10079e-06 14.9973C-0.000145189 15.6139 0.00742182 15.8909 0.0324058 16.1815C0.0503568 16.3901 0.0812876 16.6898 0.101172 16.8475C0.121037 17.0053 0.162315 17.2881 0.192878 17.476C0.223441 17.6639 0.277772 17.9553 0.313582 18.1235C0.34941 18.2918 0.403484 18.5294 0.433752 18.6515C0.464001 18.7736 0.533485 19.0276 0.58813 19.2158C0.642774 19.4041 0.733265 19.6933 0.789199 19.8585C0.845132 20.0237 0.952193 20.3151 1.02711 20.506C1.10202 20.697 1.21776 20.9752 1.28429 21.1243C1.35083 21.2734 1.47721 21.5399 1.56512 21.7164C1.65303 21.8929 1.78733 22.1498 1.86355 22.2872C1.93977 22.4245 2.08078 22.666 2.17691 22.8237C2.27303 22.9814 2.43862 23.2395 2.54487 23.3973C2.65112 23.555 2.82115 23.7965 2.92273 23.9338C3.02428 24.0712 3.19072 24.2877 3.29257 24.4149C3.39442 24.5421 3.59393 24.7793 3.73591 24.9421C3.87788 25.1049 4.15561 25.4008 4.35307 25.5996C4.55053 25.7985 4.82867 26.0649 4.97116 26.1918C5.11364 26.3186 5.33734 26.5106 5.46826 26.6185C5.59918 26.7264 5.83057 26.9085 5.98247 27.0233C6.13436 27.138 6.42848 27.3456 6.63606 27.4844C6.84365 27.6233 7.13363 27.8086 7.28046 27.8963C7.42729 27.9839 7.62353 28.0979 7.71656 28.1496C7.8096 28.2012 8.04986 28.326 8.25049 28.4268C8.45112 28.5276 8.72297 28.658 8.85462 28.7165C8.98626 28.7749 9.1851 28.8604 9.29648 28.9063C9.40787 28.9523 9.65642 29.0476 9.84882 29.1182C10.0412 29.1887 10.3738 29.2997 10.5879 29.3648C10.8021 29.4299 11.1459 29.5246 11.352 29.5752C11.5581 29.6259 11.8759 29.6967 12.0582 29.7325C12.2404 29.7682 12.5636 29.8224 12.7762 29.8529C12.9889 29.8833 13.2871 29.9207 13.439 29.9361C13.5909 29.9514 13.8798 29.9737 14.0811 29.9855C14.3087 29.9989 14.7158 30.0034 15.1581 29.9974C15.5904 29.9915 15.9957 29.9759 16.1915 29.9576C16.3687 29.9411 16.6462 29.9108 16.8083 29.8904C16.9703 29.87 17.252 29.828 17.4342 29.797C17.6165 29.7661 17.9313 29.7041 18.1339 29.6593C18.3364 29.6145 18.6595 29.5355 18.8519 29.4839C19.0443 29.4322 19.3986 29.3241 19.6392 29.2436C19.8798 29.163 20.2335 29.0345 20.4252 28.958C20.6169 28.8814 20.9212 28.7516 21.1016 28.6695C21.2819 28.5874 21.5786 28.4427 21.7609 28.3478C21.9431 28.253 22.1626 28.1348 22.2485 28.0851C22.3345 28.0355 22.4068 27.9824 22.4093 27.9672C22.4121 27.9494 22.1342 27.7449 21.6297 27.3937C21.1985 27.0935 20.83 26.8404 20.8107 26.8312C20.784 26.8184 20.7159 26.8432 20.5226 26.936C20.3834 27.0028 20.16 27.1042 20.0261 27.1613C19.8922 27.2184 19.6515 27.3142 19.4912 27.3742C19.3309 27.4343 19.0511 27.5305 18.8694 27.5881C18.6876 27.6457 18.3815 27.7332 18.1891 27.7826C17.9967 27.832 17.6943 27.9016 17.5171 27.9373C17.3399 27.9729 17.054 28.023 16.8819 28.0486C16.7098 28.0741 16.4488 28.1075 16.3019 28.1227C16.1551 28.1378 15.8776 28.1601 15.6852 28.1721C15.4662 28.1858 15.0978 28.1903 14.7002 28.184C14.3404 28.1783 13.9333 28.1612 13.7612 28.1444C13.5941 28.1282 13.358 28.1022 13.2365 28.0867C13.115 28.0712 12.8706 28.0336 12.6934 28.0032C12.5161 27.9728 12.2386 27.9185 12.0766 27.8825C11.9146 27.8466 11.6287 27.7753 11.4414 27.7241C11.2541 27.673 10.9521 27.5813 10.7703 27.5204C10.5885 27.4595 10.3068 27.3571 10.1443 27.293C9.98178 27.2289 9.72718 27.1215 9.57849 27.0545C9.4298 26.9875 9.19782 26.8773 9.06297 26.8095C8.92813 26.7418 8.72666 26.6359 8.61527 26.5743C8.50388 26.5127 8.30918 26.4001 8.18261 26.3242C8.05603 26.2482 7.81991 26.0973 7.65789 25.9888C7.49587 25.8803 7.26389 25.7177 7.14237 25.6274C7.02086 25.5371 6.81843 25.3798 6.69253 25.2779C6.56664 25.1759 6.35951 25.0009 6.23225 24.8888C6.10499 24.7768 5.83494 24.5182 5.63214 24.3141C5.42934 24.1101 5.15945 23.8224 5.03239 23.6748C4.90534 23.5273 4.71903 23.3025 4.6184 23.1753C4.51776 23.0481 4.36432 22.8441 4.27742 22.722C4.19052 22.5998 4.05308 22.4 3.972 22.2779C3.89093 22.1558 3.75002 21.931 3.65886 21.7783C3.56771 21.6257 3.42441 21.3721 3.34042 21.2148C3.25643 21.0575 3.13845 20.8244 3.07825 20.6968C3.01804 20.5691 2.90831 20.3232 2.83439 20.1502C2.76047 19.9772 2.64538 19.6844 2.57862 19.4996C2.51186 19.3148 2.41517 19.0234 2.36371 18.852C2.31225 18.6807 2.23814 18.4156 2.19904 18.263C2.15991 18.1103 2.09441 17.8189 2.05346 17.6154C2.01253 17.4119 1.95831 17.0996 1.93298 16.9216C1.90766 16.7435 1.87437 16.4687 1.85904 16.311C1.84368 16.1533 1.82288 15.8785 1.81279 15.7004C1.8027 15.5223 1.79434 15.2089 1.79419 15.004C1.79405 14.7991 1.80244 14.4827 1.81286 14.3009C1.82326 14.1192 1.8442 13.8414 1.85935 13.6837C1.8745 13.526 1.90796 13.2512 1.93369 13.0731C1.95941 12.895 2.00889 12.6051 2.04363 12.4287C2.07837 12.2524 2.14356 11.961 2.18849 11.7812C2.23343 11.6013 2.31153 11.3168 2.36205 11.1489C2.41257 10.981 2.49095 10.7396 2.53622 10.6124C2.58149 10.4851 2.65575 10.2853 2.7012 10.1683C2.74668 10.0513 2.82953 9.85145 2.88531 9.72425C2.9411 9.59705 3.028 9.40485 3.07843 9.29715C3.12886 9.18945 3.23864 8.97297 3.3224 8.8161C3.40615 8.65922 3.56134 8.38565 3.66728 8.20817C3.77321 8.03068 3.91848 7.79756 3.99008 7.69012C4.0617 7.58266 4.19531 7.39068 4.287 7.26348C4.37867 7.13627 4.54984 6.91147 4.66734 6.76392C4.78485 6.61637 4.97556 6.38742 5.09113 6.25515C5.20669 6.12288 5.44624 5.86848 5.62345 5.6898C5.80066 5.51113 6.05749 5.26542 6.1942 5.14379C6.3309 5.02215 6.52974 4.85114 6.63606 4.76377C6.74239 4.67641 6.94952 4.51496 7.09634 4.40502C7.24317 4.29506 7.48477 4.12345 7.63322 4.02367C7.78167 3.92387 8.02607 3.76831 8.17635 3.67796C8.32662 3.5876 8.57764 3.44446 8.73417 3.35985C8.8907 3.27524 9.12268 3.15654 9.24968 3.09603C9.37668 3.03553 9.62144 2.92526 9.79359 2.85097C9.96573 2.77669 10.2557 2.66157 10.438 2.59516C10.6202 2.52874 10.8914 2.4364 11.0404 2.38996C11.1895 2.34352 11.4547 2.26825 11.6296 2.22272C11.8046 2.17717 12.0885 2.11115 12.2607 2.07602C12.4328 2.04088 12.7062 1.99089 12.8683 1.96493C13.0303 1.93897 13.2747 1.90513 13.4114 1.88974C13.5481 1.87434 13.7759 1.85134 13.9177 1.83862C14.0747 1.82454 14.474 1.81571 14.9395 1.81601C15.5192 1.81638 15.7858 1.82428 16.0442 1.84868C16.2315 1.86637 16.5369 1.90154 16.7228 1.92683C16.9087 1.95213 17.2111 2.00151 17.3948 2.03655C17.5785 2.07159 17.8821 2.13826 18.0694 2.18468C18.2568 2.2311 18.5592 2.31451 18.7414 2.36999C18.9237 2.42548 19.1971 2.51583 19.349 2.57074C19.5009 2.62567 19.7097 2.70468 19.8131 2.74631C19.9164 2.78796 20.107 2.86907 20.2365 2.92659C20.3661 2.98412 20.5444 3.06758 20.6328 3.11209C20.7212 3.15661 20.8017 3.19302 20.8117 3.19302C20.8217 3.19302 21.1947 2.93842 21.6406 2.62725C22.0865 2.31606 22.4513 2.05452 22.4513 2.04604C22.4513 2.03757 22.3869 1.99329 22.3081 1.94763C22.2294 1.90198 22.0382 1.797 21.8833 1.71432C21.7284 1.63165 21.4718 1.50262 21.313 1.42761C21.1543 1.35258 20.9074 1.24113 20.7644 1.17992C20.6215 1.11872 20.3695 1.01735 20.2046 0.954642C20.0397 0.891957 19.7797 0.799003 19.6269 0.748085C19.4741 0.697167 19.1766 0.606526 18.9659 0.546672C18.7553 0.486817 18.4156 0.400117 18.2111 0.354028C18.0066 0.307921 17.6694 0.241147 17.4619 0.205623C17.2543 0.170099 16.9477 0.124362 16.7806 0.103991C16.6136 0.0836203 16.3319 0.0535545 16.1547 0.0371617C15.9371 0.0170314 15.5844 0.00557865 15.0684 0.00191524C14.6482 -0.0010821 14.2629 -0.000490025 14.2123 0.00319189ZM29.3371 0.00341393C29.2814 0.00713285 29.1115 0.0189001 28.9597 0.0295388C28.8078 0.0401774 28.5716 0.0614363 28.4349 0.0767746C28.2982 0.0921128 28.0414 0.125768 27.8642 0.151578C27.687 0.177389 27.3929 0.227548 27.2106 0.263053C27.0283 0.29854 26.7263 0.364667 26.5395 0.409978C26.3527 0.455308 26.0461 0.537569 25.8583 0.592779C25.6705 0.647989 25.3801 0.740166 25.213 0.797597C25.0459 0.855027 24.7559 0.963061 24.5686 1.03762C24.3812 1.11221 24.0871 1.23685 23.915 1.31462C23.7428 1.39238 23.451 1.53392 23.2664 1.62917C23.0818 1.72444 22.8394 1.85469 22.7278 1.91866C22.6162 1.98262 22.5253 2.04366 22.5258 2.05429C22.5262 2.06493 22.8055 2.26514 23.1464 2.49919C23.4873 2.73325 23.8556 2.98624 23.9648 3.0614L24.1633 3.19804L24.2509 3.16009C24.299 3.13922 24.471 3.06012 24.633 2.98434C24.795 2.90853 25.0472 2.79871 25.1934 2.74026C25.3395 2.68181 25.5881 2.58845 25.7457 2.53278C25.9033 2.4771 26.2145 2.37902 26.4373 2.31482C26.6601 2.25062 26.9749 2.16832 27.1369 2.13195C27.299 2.09555 27.5434 2.04515 27.6801 2.01995C27.8168 1.99477 28.0449 1.95731 28.1871 1.93671C28.3292 1.91612 28.5736 1.88665 28.7302 1.87123C28.8868 1.8558 29.1516 1.83473 29.3187 1.82437C29.4858 1.81401 29.8172 1.80559 30.0551 1.80563C30.2931 1.80568 30.6286 1.81404 30.8008 1.8242C30.9729 1.83436 31.238 1.85532 31.3899 1.87077C31.5418 1.88622 31.8101 1.91971 31.9861 1.94519C32.162 1.97066 32.4506 2.02036 32.6273 2.05564C32.804 2.09093 33.095 2.15674 33.2739 2.2019C33.4529 2.24707 33.7401 2.32694 33.9123 2.37939C34.0844 2.43185 34.3603 2.52439 34.5253 2.58504C34.6904 2.64571 34.9555 2.74942 35.1145 2.81551C35.2735 2.8816 35.59 3.02739 35.8178 3.1395C36.0457 3.2516 36.3688 3.42163 36.5359 3.51734C36.7029 3.61307 36.9535 3.76451 37.0926 3.85388C37.2318 3.94324 37.4569 4.09429 37.593 4.18952C37.729 4.28475 37.9632 4.4586 38.1133 4.57583C38.2634 4.69308 38.498 4.88574 38.6347 5.00397C38.7714 5.12221 39.0478 5.38132 39.2489 5.57977C39.45 5.77822 39.7075 6.04465 39.8211 6.17185C39.9346 6.29906 40.11 6.50323 40.2109 6.62556C40.3118 6.7479 40.4805 6.96391 40.5859 7.10558C40.6912 7.24727 40.8629 7.49127 40.9674 7.64782C41.0719 7.80437 41.2357 8.06434 41.3314 8.22557C41.4271 8.38677 41.5732 8.64554 41.6562 8.80061C41.7391 8.95566 41.8757 9.23058 41.9598 9.41155C42.0439 9.5925 42.1782 9.90548 42.2583 10.1071C42.3385 10.3087 42.4514 10.6151 42.5093 10.7881C42.5673 10.9611 42.6588 11.2613 42.7127 11.4553C42.7666 11.6492 42.8443 11.9615 42.8854 12.1491C42.9265 12.3368 42.9852 12.6433 43.0158 12.8302C43.0464 13.0171 43.0877 13.3169 43.1077 13.4963C43.1276 13.6757 43.1535 13.9557 43.1653 14.1185C43.1771 14.2813 43.1867 14.6768 43.1867 14.9973C43.1867 15.3179 43.1771 15.7134 43.1653 15.8762C43.1535 16.039 43.1276 16.319 43.1077 16.4984C43.0877 16.6778 43.0468 16.975 43.0166 17.1588C42.9865 17.3427 42.9367 17.6122 42.9061 17.7578C42.8754 17.9033 42.817 18.1515 42.7763 18.3092C42.7356 18.4669 42.6568 18.7444 42.6012 18.9259C42.5456 19.1073 42.4457 19.4027 42.3791 19.5823C42.3125 19.7619 42.2087 20.0256 42.1484 20.1682C42.0882 20.3109 41.9489 20.6109 41.8388 20.8347C41.7287 21.0586 41.5627 21.3748 41.4698 21.5373C41.3769 21.6998 41.2222 21.956 41.126 22.1066C41.0298 22.2572 40.8763 22.4865 40.7848 22.616C40.6934 22.7455 40.5348 22.9597 40.4324 23.092C40.3301 23.2243 40.1503 23.4449 40.0329 23.5823C39.9156 23.7197 39.7136 23.9445 39.5841 24.0819C39.4546 24.2192 39.2357 24.4392 39.0976 24.5707C38.9595 24.7022 38.7346 24.9064 38.5979 25.0243C38.4612 25.1423 38.2404 25.324 38.1073 25.4282C37.9742 25.5324 37.7341 25.7099 37.5738 25.8227C37.4135 25.9354 37.1773 26.0933 37.0488 26.1735C36.9204 26.2537 36.7048 26.3832 36.5697 26.4612C36.4346 26.5393 36.1833 26.6752 36.0111 26.7632C35.839 26.8513 35.5905 26.9721 35.4588 27.0317C35.3272 27.0913 35.0892 27.1926 34.9299 27.2569C34.7707 27.3212 34.5068 27.42 34.3436 27.4763C34.1804 27.5327 33.9213 27.6159 33.7679 27.6613C33.6144 27.7067 33.3521 27.7777 33.185 27.8191C33.0179 27.8605 32.7321 27.9227 32.5498 27.9574C32.3676 27.9922 32.0693 28.0416 31.887 28.0673C31.7048 28.093 31.4024 28.1286 31.215 28.1464C30.9524 28.1714 30.691 28.179 30.0735 28.1794C29.5581 28.1798 29.1808 28.1715 29.0149 28.1561C28.8731 28.1429 28.6204 28.1156 28.4533 28.0954C28.2863 28.0752 28.0253 28.0377 27.8734 28.0119C27.7215 27.9862 27.4978 27.9442 27.3763 27.9186C27.2548 27.8931 27.0093 27.8354 26.8308 27.7906C26.6523 27.7457 26.3748 27.6683 26.2141 27.6184C26.0533 27.5686 25.8239 27.493 25.7043 27.4505C25.5847 27.4079 25.414 27.3452 25.3251 27.3111C25.2362 27.277 25.0546 27.2024 24.9216 27.1453C24.7886 27.0883 24.5749 26.9917 24.4468 26.9309C24.3186 26.87 24.2074 26.8202 24.1998 26.8202C24.1921 26.8202 23.8225 27.0703 23.3784 27.376C22.9343 27.6817 22.5684 27.9433 22.5653 27.9574C22.5618 27.9732 22.6353 28.0262 22.7586 28.0966C22.868 28.1592 23.1606 28.312 23.4087 28.4362C23.6568 28.5604 24.0089 28.7258 24.1912 28.8036C24.3734 28.8814 24.6137 28.9801 24.7251 29.023C24.8365 29.0658 25.0957 29.1578 25.3012 29.2274C25.5067 29.297 25.8381 29.3998 26.0377 29.456C26.2372 29.5122 26.5276 29.5874 26.6829 29.6232C26.8382 29.659 27.1158 29.7169 27.2997 29.7518C27.4836 29.7867 27.7873 29.8366 27.9747 29.8625C28.162 29.8885 28.4354 29.922 28.5822 29.9369C28.7291 29.9518 29.0138 29.9737 29.2151 29.9856C29.4423 29.9989 29.8505 30.0034 30.2921 29.9974C30.7244 29.9915 31.1297 29.9759 31.3255 29.9576C31.5027 29.9411 31.7803 29.9109 31.9423 29.8905C32.1043 29.8701 32.4025 29.8248 32.6051 29.7899C32.8076 29.755 33.0727 29.7048 33.1942 29.6784C33.3157 29.652 33.5477 29.5972 33.7097 29.5565C33.8718 29.5158 34.1289 29.4458 34.2811 29.4009C34.4334 29.356 34.7185 29.2643 34.9146 29.1971C35.1108 29.1299 35.4152 29.0171 35.5911 28.9465C35.767 28.8759 36.0301 28.7645 36.1757 28.699C36.3213 28.6334 36.5758 28.5117 36.7413 28.4284C36.9068 28.3452 37.154 28.2143 37.2907 28.1376C37.4274 28.0609 37.6553 27.9274 37.797 27.841C37.9388 27.7546 38.2034 27.5838 38.3851 27.4613C38.5668 27.3388 38.8609 27.1288 39.0387 26.9945C39.2165 26.8602 39.4738 26.6565 39.6105 26.5418C39.7472 26.4271 39.9709 26.2315 40.1076 26.1071C40.2443 25.9827 40.522 25.7113 40.7247 25.5041C40.9274 25.2968 41.1973 25.0065 41.3245 24.8589C41.4517 24.7114 41.6528 24.468 41.7715 24.318C41.8901 24.168 42.0966 23.8914 42.2304 23.7034C42.3641 23.5153 42.5501 23.2404 42.6438 23.0924C42.7374 22.9444 42.8859 22.7007 42.9737 22.5506C43.0615 22.4006 43.2313 22.0856 43.3511 21.8505C43.4709 21.6154 43.6276 21.2907 43.6993 21.1289C43.7711 20.9671 43.8905 20.6807 43.9647 20.4925C44.0389 20.3042 44.1536 19.9878 44.2197 19.7894C44.2857 19.5909 44.3738 19.3092 44.4155 19.1633C44.4572 19.0174 44.532 18.7302 44.5818 18.525C44.6316 18.3198 44.701 17.9979 44.7362 17.8097C44.7714 17.6214 44.8209 17.3217 44.8462 17.1436C44.8715 16.9655 44.9051 16.6907 44.9208 16.533C44.9364 16.3753 44.9573 16.1213 44.9672 15.9687C44.977 15.8161 44.9903 15.5163 44.9969 15.3026C45.0034 15.0889 44.9994 14.7018 44.9881 14.4423C44.9767 14.1828 44.9552 13.8331 44.9402 13.6652C44.9252 13.4973 44.8916 13.1976 44.8655 12.9991C44.8394 12.8007 44.79 12.4838 44.7558 12.2949C44.7216 12.106 44.6592 11.8022 44.6172 11.6198C44.5751 11.4375 44.5078 11.1674 44.4675 11.0197C44.4273 10.872 44.35 10.6096 44.2957 10.4366C44.2415 10.2636 44.139 9.96557 44.0681 9.77432C43.9971 9.58306 43.8749 9.27524 43.7965 9.09028C43.7181 8.90529 43.5699 8.58304 43.4671 8.37414C43.3643 8.16523 43.2153 7.87775 43.1361 7.73528C43.0569 7.59281 42.9216 7.35969 42.8356 7.21722C42.7495 7.07476 42.5962 6.8333 42.4949 6.68066C42.3935 6.52802 42.2447 6.31154 42.1642 6.19961C42.0836 6.08767 41.9467 5.9045 41.8598 5.79256C41.7729 5.68062 41.6187 5.48913 41.5171 5.36701C41.4155 5.2449 41.2236 5.02426 41.0907 4.87671C40.9578 4.72916 40.6966 4.45856 40.5103 4.27539C40.324 4.09222 40.0639 3.84751 39.9325 3.7316C39.801 3.61568 39.5567 3.41081 39.3896 3.27632C39.2225 3.14185 38.9864 2.95882 38.8649 2.86961C38.7434 2.78039 38.499 2.61043 38.3218 2.4919C38.1445 2.3734 37.8788 2.20407 37.7312 2.11565C37.5836 2.02721 37.3558 1.8956 37.2249 1.82317C37.094 1.75071 36.8295 1.61404 36.6371 1.5194C36.4447 1.42478 36.1879 1.30389 36.0664 1.25075C35.9449 1.19761 35.7419 1.11237 35.6153 1.06134C35.4887 1.01031 35.2609 0.923226 35.109 0.867831C34.9571 0.812454 34.6719 0.717353 34.4752 0.656518C34.2786 0.595665 33.9762 0.509149 33.8032 0.464227C33.6303 0.419322 33.3521 0.353362 33.185 0.31769C33.0179 0.282 32.7321 0.22764 32.5498 0.19689C32.3676 0.16614 32.0817 0.12414 31.9147 0.103566C31.7476 0.0829913 31.4659 0.0529994 31.2887 0.0368841C31.0753 0.017494 30.7085 0.00576369 30.2024 0.00213728C29.7822 -0.000878554 29.3928 -0.000304985 29.3371 0.00341393ZM20.5221 3.45003C20.3774 3.57102 20.1537 3.76574 20.025 3.88274C19.8962 3.99975 19.6127 4.2775 19.395 4.49997C19.1773 4.72244 18.9585 4.9527 18.9088 5.01163C18.852 5.07909 18.8249 5.1253 18.8359 5.13633C18.8455 5.14597 19.2202 5.33293 19.6687 5.55183C20.1171 5.77073 20.4873 5.94983 20.4913 5.94983C20.4952 5.94983 20.6263 5.82181 20.7825 5.66536C20.9387 5.50889 21.1854 5.27456 21.3308 5.1446C21.4762 5.01464 21.7153 4.81151 21.8621 4.69319C22.009 4.57487 22.2019 4.42504 22.2909 4.36021C22.3798 4.29539 22.4497 4.23313 22.446 4.22187C22.4424 4.2106 22.0755 3.98284 21.6307 3.71571C21.1859 3.44859 20.8136 3.23003 20.8035 3.23003C20.7934 3.23004 20.6667 3.32903 20.5221 3.45003ZM23.3398 3.71702C22.8918 3.98341 22.5255 4.20971 22.526 4.21989C22.5263 4.23006 22.6568 4.33615 22.8158 4.45566C22.9748 4.57514 23.1993 4.75201 23.3147 4.84866C23.4302 4.94532 23.629 5.11927 23.7566 5.23524C23.8842 5.3512 24.1318 5.59272 24.3069 5.77197C24.4819 5.9512 24.6331 6.09785 24.6429 6.09785C24.6528 6.09785 25.0253 5.91466 25.4708 5.69076C25.9163 5.46687 26.2808 5.27441 26.2808 5.26309C26.2808 5.25177 26.198 5.14873 26.0968 5.03411C25.9956 4.91949 25.7989 4.70669 25.6596 4.56123C25.5203 4.41577 25.2779 4.17644 25.1209 4.02937C24.964 3.88232 24.6937 3.64231 24.5203 3.49601C24.347 3.34972 24.1937 3.23062 24.1797 3.23134C24.1658 3.23206 23.7878 3.45061 23.3398 3.71702ZM14.4416 4.43405C14.2843 4.44193 14.0316 4.46175 13.8801 4.4781C13.7286 4.49446 13.4769 4.52859 13.3206 4.55396C13.1644 4.57933 12.9365 4.62084 12.8143 4.64625C12.6921 4.67165 12.4637 4.72599 12.3068 4.76701C12.1499 4.80801 11.8806 4.88807 11.7084 4.94489C11.5362 5.00173 11.2504 5.10597 11.0732 5.17654C10.896 5.24712 10.5604 5.39973 10.3275 5.51568C10.0946 5.63161 9.75697 5.81628 9.57718 5.92604C9.3974 6.03579 9.14903 6.19637 9.02527 6.28287C8.90151 6.36936 8.69234 6.52436 8.56046 6.62728C8.4286 6.73021 8.22541 6.89641 8.10896 6.99664C7.99251 7.09687 7.74777 7.32903 7.56511 7.51257C7.38244 7.69613 7.14768 7.9462 7.04343 8.06832C6.93917 8.19043 6.75362 8.42356 6.63109 8.58637C6.50855 8.74919 6.32379 9.01146 6.22052 9.16919C6.11724 9.32692 5.96429 9.57599 5.88063 9.72268C5.79699 9.86938 5.64762 10.1566 5.54872 10.361C5.44981 10.5654 5.31097 10.879 5.24016 11.0579C5.16935 11.2369 5.06861 11.5158 5.01626 11.6778C4.96394 11.8397 4.88459 12.1138 4.83996 12.2868C4.79533 12.4598 4.73452 12.722 4.70482 12.8696C4.67512 13.0172 4.63372 13.2544 4.6128 13.3969C4.5919 13.5394 4.56189 13.785 4.54613 13.9427C4.53039 14.1005 4.51252 14.4501 4.50642 14.7198C4.49966 15.0195 4.50373 15.3432 4.51688 15.5524C4.5287 15.7407 4.5507 16.0029 4.56574 16.1352C4.5808 16.2675 4.61359 16.5024 4.6386 16.6573C4.66362 16.8122 4.7051 17.037 4.73078 17.1569C4.75646 17.2768 4.81098 17.5039 4.85193 17.6616C4.89287 17.8194 4.97521 18.0959 5.0349 18.2761C5.09459 18.4563 5.19426 18.7311 5.2564 18.8867C5.31854 19.0423 5.45887 19.3527 5.56827 19.5766C5.67765 19.8005 5.8354 20.1002 5.91884 20.2427C6.00226 20.3851 6.13937 20.6069 6.22352 20.7354C6.30766 20.864 6.46247 21.0846 6.5675 21.2257C6.67256 21.3668 6.82704 21.5656 6.91082 21.6673C6.9946 21.7691 7.16942 21.969 7.29929 22.1117C7.42916 22.2543 7.63342 22.4628 7.75316 22.5751C7.87291 22.6874 8.05787 22.8548 8.1642 22.9472C8.27052 23.0396 8.4715 23.2032 8.6108 23.3107C8.75009 23.4183 9.00693 23.6017 9.18154 23.7182C9.35616 23.8348 9.60982 23.9939 9.74526 24.0718C9.88067 24.1497 10.1237 24.28 10.2853 24.3613C10.4468 24.4426 10.7218 24.5705 10.8963 24.6456C11.0708 24.7206 11.3745 24.8372 11.5713 24.9046C11.768 24.972 12.0491 25.0602 12.1958 25.1007C12.3426 25.1411 12.5992 25.2037 12.7659 25.2397C12.9327 25.2758 13.194 25.3249 13.3467 25.3489C13.4994 25.3729 13.7607 25.4078 13.9275 25.4264C14.1722 25.4537 14.3746 25.4601 14.9763 25.4597C15.5605 25.4593 15.7858 25.4521 16.0166 25.4267C16.1786 25.4088 16.4189 25.3776 16.5505 25.3572C16.6821 25.3369 16.9141 25.2952 17.066 25.2648C17.2179 25.2343 17.4706 25.1757 17.6276 25.1347C17.7845 25.0936 18.0662 25.0095 18.2535 24.9479C18.4409 24.8863 18.6169 24.8242 18.6448 24.8099C18.6726 24.7956 18.6954 24.7761 18.6954 24.7664C18.6954 24.7568 18.4582 24.4344 18.1683 24.05C17.8784 23.6656 17.6236 23.3325 17.6021 23.3098L17.5631 23.2687L17.3054 23.3425C17.1636 23.3832 16.9068 23.4451 16.7346 23.48C16.5625 23.515 16.3346 23.5562 16.2283 23.5715C16.122 23.5868 15.9521 23.6085 15.8509 23.6197C15.7496 23.631 15.4389 23.6449 15.1605 23.6506C14.8476 23.6571 14.5451 23.6529 14.3688 23.6396C14.2118 23.6278 13.984 23.6054 13.8625 23.5898C13.7409 23.5742 13.5297 23.5409 13.393 23.5158C13.2563 23.4906 13.0243 23.4406 12.8775 23.4046C12.7306 23.3687 12.4407 23.2824 12.2331 23.213C12.0255 23.1436 11.7373 23.0358 11.5927 22.9736C11.448 22.9113 11.2367 22.8136 11.1232 22.7565C11.0096 22.6993 10.8214 22.5984 10.7049 22.5322C10.5885 22.466 10.3749 22.334 10.2303 22.2388C10.0857 22.1436 9.88275 22.0012 9.77924 21.9225C9.67575 21.8437 9.49164 21.696 9.37013 21.5941C9.24862 21.4923 9.01234 21.2714 8.84508 21.1034C8.67781 20.9353 8.45487 20.6941 8.34967 20.5673C8.24447 20.4406 8.09064 20.2449 8.00783 20.1325C7.92503 20.0201 7.81497 19.8647 7.76329 19.7872C7.71159 19.7097 7.62303 19.5696 7.56649 19.476C7.50997 19.3823 7.40663 19.2 7.33687 19.0711C7.26709 18.9421 7.16051 18.7278 7.10001 18.595C7.03949 18.4621 6.95193 18.2567 6.9054 18.1385C6.85886 18.0202 6.78381 17.8112 6.73862 17.6738C6.69343 17.5365 6.62726 17.3131 6.59162 17.1775C6.55596 17.0418 6.50187 16.8059 6.47139 16.6533C6.44094 16.5006 6.39972 16.2467 6.3798 16.089C6.35988 15.9312 6.33482 15.6746 6.32412 15.5185C6.31343 15.3626 6.30466 15.1072 6.30466 14.9511C6.30466 14.795 6.31343 14.5396 6.32412 14.3836C6.33482 14.2276 6.35955 13.9738 6.37904 13.8196C6.39856 13.6653 6.43579 13.428 6.46178 13.2922C6.48778 13.1565 6.54141 12.9194 6.58094 12.7654C6.62049 12.6114 6.68312 12.3908 6.72015 12.2751C6.75715 12.1594 6.84013 11.9293 6.90456 11.7637C6.96896 11.5981 7.08255 11.3356 7.15697 11.1804C7.23139 11.0251 7.36104 10.7776 7.44507 10.6304C7.52912 10.4831 7.66429 10.2627 7.74547 10.1405C7.82664 10.0184 7.94838 9.84359 8.016 9.752C8.08363 9.66042 8.22329 9.48371 8.32638 9.35932C8.42946 9.23493 8.62363 9.01934 8.75785 8.88026C8.89208 8.74118 9.10547 8.5359 9.23205 8.42407C9.35862 8.31227 9.54956 8.15187 9.65639 8.06765C9.76319 7.98343 9.96617 7.83588 10.1075 7.73976C10.2487 7.64364 10.4577 7.50961 10.5718 7.44191C10.6859 7.37421 10.9189 7.24862 11.0894 7.16279C11.26 7.07698 11.5104 6.95977 11.646 6.90232C11.7816 6.84487 12.0375 6.74875 12.2147 6.68871C12.3919 6.62867 12.6675 6.54611 12.8272 6.50526C12.9869 6.46439 13.2303 6.41003 13.368 6.38446C13.5058 6.35889 13.7521 6.32141 13.9154 6.30117C14.0787 6.28092 14.3842 6.2565 14.5942 6.2469C14.8276 6.23622 15.1177 6.23593 15.3399 6.24614C15.5399 6.25534 15.7823 6.2716 15.8785 6.28226C15.9747 6.29293 16.1445 6.31471 16.2559 6.33066C16.3673 6.34663 16.5949 6.38818 16.7617 6.42302C16.9284 6.45786 17.1877 6.52112 17.3378 6.56358C17.5726 6.63002 17.6141 6.63713 17.6353 6.61448C17.6488 6.59999 17.8986 6.27177 18.1903 5.88507C18.482 5.49838 18.7212 5.16564 18.7219 5.14564C18.7229 5.11459 18.6666 5.09013 18.3364 4.97816C18.1237 4.90605 17.8172 4.81229 17.6552 4.76979C17.4932 4.72731 17.2606 4.67173 17.1384 4.6463C17.0161 4.62088 16.7883 4.57933 16.6321 4.55398C16.4758 4.52863 16.2319 4.49531 16.0901 4.47993C15.9482 4.46456 15.6665 4.44358 15.4641 4.43333C15.2616 4.42306 15.0132 4.41581 14.9119 4.41721C14.8106 4.4186 14.599 4.42618 14.4416 4.43405ZM29.4752 4.63787C29.3334 4.64595 29.1304 4.66159 29.0241 4.67261C28.9178 4.68362 28.7106 4.70971 28.5638 4.73056C28.417 4.75141 28.1745 4.79278 28.0248 4.8225C27.8752 4.85221 27.6225 4.90948 27.4633 4.94977C27.3041 4.99007 27.0909 5.04843 26.9897 5.07944C26.8884 5.11047 26.7078 5.1703 26.5883 5.21241C26.417 5.27278 26.3722 5.2956 26.3765 5.32026C26.3796 5.33747 26.6224 5.68203 26.916 6.08595C27.4004 6.75215 27.4542 6.81965 27.496 6.81299C27.5213 6.80894 27.687 6.76751 27.8642 6.7209C28.0414 6.67431 28.2982 6.61526 28.4349 6.58969C28.5716 6.56412 28.7788 6.53063 28.8952 6.51529C29.0117 6.49995 29.2105 6.47756 29.3371 6.46556C29.4637 6.45353 29.7951 6.44389 30.0735 6.44413C30.41 6.44443 30.6848 6.45505 30.8928 6.47582C31.065 6.49301 31.3502 6.5315 31.5267 6.56132C31.7031 6.59115 31.9828 6.64917 32.1483 6.69023C32.3137 6.73128 32.5794 6.80714 32.7388 6.8588C32.8981 6.91046 33.1528 7.00306 33.3047 7.0646C33.4566 7.12615 33.6803 7.22379 33.8018 7.28159C33.9233 7.33941 34.1387 7.45175 34.2805 7.53129C34.4223 7.61082 34.6566 7.75367 34.8012 7.84875C34.9459 7.94383 35.158 8.09244 35.2727 8.179C35.3874 8.26555 35.5756 8.41741 35.6909 8.51649C35.8063 8.61557 35.999 8.79254 36.1192 8.90977C36.2394 9.02702 36.4184 9.21452 36.5171 9.32646C36.6158 9.43839 36.7729 9.62573 36.8662 9.74275C36.9595 9.85978 37.1298 10.0971 37.2445 10.2701C37.3593 10.4431 37.5007 10.6679 37.5587 10.7696C37.6168 10.8714 37.7334 11.0956 37.8179 11.2678C37.9024 11.4401 38.0218 11.7087 38.0832 11.8647C38.1446 12.0206 38.2281 12.2502 38.2689 12.3748C38.3096 12.4994 38.375 12.7262 38.4143 12.8789C38.4535 13.0315 38.5062 13.2646 38.5313 13.3969C38.5565 13.5292 38.5943 13.7748 38.6154 13.9427C38.6364 14.1106 38.6617 14.4166 38.6714 14.6227C38.6828 14.8631 38.6828 15.1316 38.6714 15.372C38.6617 15.5781 38.6364 15.8841 38.6154 16.052C38.5943 16.2199 38.5565 16.4655 38.5313 16.5978C38.5062 16.7301 38.4532 16.9643 38.4137 17.1183C38.3741 17.2722 38.3115 17.4929 38.2744 17.6086C38.2373 17.7242 38.1634 17.9313 38.1102 18.0687C38.0569 18.2061 37.9652 18.4225 37.9065 18.5497C37.8477 18.6769 37.746 18.8809 37.6806 19.003C37.6152 19.1252 37.5243 19.2875 37.4786 19.3638C37.4328 19.4401 37.3142 19.6233 37.215 19.7709C37.1158 19.9184 36.9625 20.1307 36.8743 20.2427C36.7862 20.3546 36.6327 20.5387 36.5333 20.6517C36.4339 20.7648 36.2298 20.9771 36.0796 21.1235C35.9295 21.27 35.7077 21.4711 35.5867 21.5705C35.4657 21.6699 35.2609 21.8286 35.1314 21.9232C35.002 22.0178 34.7733 22.171 34.6231 22.2637C34.473 22.3564 34.2309 22.4949 34.0852 22.5713C33.9395 22.6478 33.7084 22.7599 33.5717 22.8204C33.435 22.881 33.2113 22.9722 33.0746 23.0233C32.9379 23.0743 32.6976 23.1541 32.5406 23.2005C32.3837 23.2469 32.1476 23.3098 32.0159 23.3401C31.8843 23.3705 31.6771 23.4122 31.5556 23.4327C31.4341 23.4533 31.2353 23.4824 31.1138 23.4974C30.9923 23.5123 30.7313 23.5345 30.5338 23.5466C30.3168 23.5599 30.0328 23.5637 29.8158 23.5563C29.6183 23.5495 29.3366 23.5315 29.1898 23.5164C29.043 23.5012 28.8151 23.4717 28.6835 23.4509C28.5518 23.4301 28.33 23.3882 28.1904 23.3578C28.0508 23.3275 27.8485 23.2778 27.7407 23.2473C27.5522 23.1941 27.5435 23.1933 27.512 23.2253C27.494 23.2436 27.2347 23.5791 26.9356 23.9708C26.6366 24.3626 26.3943 24.6915 26.3973 24.7017C26.4002 24.7119 26.5678 24.7757 26.7698 24.8436C26.9717 24.9115 27.3068 25.0091 27.5144 25.0605C27.722 25.1119 28.0054 25.1748 28.1443 25.2004C28.2831 25.2259 28.5234 25.2634 28.6782 25.2836C28.833 25.3039 29.0674 25.3308 29.199 25.3435C29.3394 25.357 29.7008 25.3662 30.0735 25.3658C30.531 25.3653 30.7937 25.3564 31.0125 25.334C31.1796 25.3169 31.4364 25.2857 31.5833 25.2645C31.7301 25.2435 32.0093 25.1932 32.2038 25.153C32.3983 25.1127 32.68 25.0461 32.8298 25.005C32.9796 24.9639 33.2371 24.8851 33.402 24.8299C33.5669 24.7748 33.8279 24.6789 33.982 24.6168C34.136 24.5547 34.4444 24.4144 34.6671 24.3051C34.8899 24.1958 35.1965 24.033 35.3483 23.9433C35.5002 23.8536 35.7239 23.7134 35.8454 23.6317C35.967 23.5499 36.1409 23.4291 36.2321 23.3632C36.3232 23.2972 36.4943 23.1656 36.6123 23.0707C36.7303 22.9758 36.9416 22.7952 37.0818 22.6694C37.222 22.5435 37.4403 22.3329 37.5669 22.2014C37.6935 22.0698 37.8721 21.875 37.9639 21.7685C38.0558 21.662 38.193 21.4957 38.269 21.3991C38.3449 21.3024 38.4615 21.1484 38.528 21.0568C38.5944 20.9652 38.7275 20.7695 38.8235 20.622C38.9196 20.4744 39.0687 20.2288 39.1548 20.0762C39.241 19.9235 39.3487 19.7237 39.3944 19.6321C39.44 19.5405 39.5205 19.3698 39.5732 19.2528C39.6259 19.1358 39.7105 18.936 39.7612 18.8088C39.8119 18.6816 39.8936 18.4592 39.9426 18.3145C39.9917 18.1699 40.0649 17.9326 40.1054 17.7872C40.1458 17.6418 40.1996 17.4313 40.225 17.3193C40.2504 17.2074 40.2922 17.0034 40.3178 16.866C40.3435 16.7287 40.3807 16.4914 40.4005 16.3387C40.4203 16.1861 40.4468 15.9446 40.4592 15.8022C40.4717 15.6597 40.4819 15.3017 40.4819 15.0066C40.4819 14.7115 40.4718 14.3535 40.4593 14.211C40.4469 14.0685 40.421 13.8271 40.4017 13.6744C40.3825 13.5218 40.3456 13.2803 40.3199 13.1379C40.2941 12.9954 40.2319 12.7123 40.1816 12.5088C40.1314 12.3053 40.0477 12.0056 39.9958 11.8427C39.9439 11.6799 39.8494 11.4135 39.7858 11.2507C39.7223 11.0879 39.6117 10.8267 39.54 10.6704C39.4683 10.514 39.3464 10.269 39.2689 10.1259C39.1915 9.98273 39.0527 9.74218 38.9604 9.59131C38.8681 9.44043 38.7001 9.18675 38.5869 9.02754C38.4738 8.86835 38.2859 8.6207 38.1693 8.47721C38.0527 8.33373 37.8447 8.09392 37.7069 7.94431C37.5692 7.79471 37.3467 7.57087 37.2125 7.44691C37.0783 7.32294 36.8898 7.15531 36.7936 7.0744C36.6974 6.99349 36.5234 6.85443 36.407 6.76536C36.2905 6.67631 36.0917 6.53235 35.9651 6.44544C35.8385 6.35856 35.6107 6.2125 35.4588 6.12088C35.3069 6.02928 35.0542 5.88715 34.8973 5.80503C34.7403 5.72294 34.5166 5.61287 34.4002 5.56044C34.2837 5.508 34.0559 5.41271 33.8939 5.34868C33.7318 5.28463 33.4584 5.18647 33.2863 5.13056C33.1141 5.07463 32.8407 4.99494 32.6787 4.95346C32.5167 4.91196 32.2599 4.85338 32.108 4.82326C31.9561 4.79314 31.7117 4.75145 31.5648 4.73064C31.418 4.70982 31.215 4.6842 31.1138 4.67369C31.0125 4.66318 30.7805 4.64643 30.5983 4.63648C30.416 4.62654 30.1467 4.61946 29.9999 4.62077C29.8531 4.62208 29.6169 4.62978 29.4752 4.63787ZM20.4665 6.03799C20.4464 6.05564 20.1967 6.36899 19.9117 6.73434C19.6266 7.09966 19.3958 7.41068 19.3988 7.42548C19.4018 7.44028 19.5097 7.52021 19.6385 7.60308C19.7674 7.68597 19.9703 7.82574 20.0896 7.91368C20.2088 8.00162 20.4141 8.16379 20.5457 8.27404C20.6774 8.38431 20.9255 8.61416 21.0971 8.78485C21.2687 8.95553 21.4152 9.09518 21.4226 9.09518C21.4301 9.09518 21.6667 8.77328 21.9484 8.37984C22.23 7.98639 22.4667 7.65404 22.4744 7.64127C22.4827 7.62739 22.4685 7.59437 22.4391 7.55929C22.412 7.52696 22.2783 7.39643 22.1419 7.26919C22.0055 7.14195 21.7977 6.9574 21.6801 6.85906C21.5625 6.76074 21.371 6.6085 21.2546 6.52077C21.1381 6.43303 20.9357 6.28901 20.8048 6.2007C20.6739 6.11237 20.5525 6.03242 20.535 6.02301C20.5124 6.01085 20.4925 6.01518 20.4665 6.03799ZM24.274 6.37103C24.0968 6.49066 23.9021 6.6254 23.8413 6.67043C23.7806 6.71546 23.6522 6.81473 23.556 6.89103C23.4598 6.96733 23.2944 7.10523 23.1885 7.1975C23.0826 7.28975 22.9231 7.43488 22.8341 7.51999C22.7451 7.6051 22.6722 7.68584 22.6722 7.69942C22.6722 7.713 22.8965 8.03747 23.1705 8.4205C23.4446 8.80351 23.673 9.12793 23.6782 9.1414C23.6834 9.15505 23.438 9.48184 23.1235 9.87987C22.8133 10.2726 22.5522 10.5938 22.5433 10.5938C22.5343 10.5938 22.2855 10.2879 21.9904 9.9139C21.6952 9.53993 21.44 9.23158 21.4232 9.22869C21.4016 9.22497 21.346 9.29817 21.2335 9.47847C21.146 9.61873 21.0272 9.81626 20.9695 9.91741C20.9119 10.0186 20.7991 10.2329 20.7189 10.3938C20.6387 10.5547 20.5244 10.8008 20.4649 10.9407C20.4053 11.0807 20.3046 11.3388 20.2409 11.5143C20.1773 11.6899 20.1198 11.8335 20.1133 11.8335C20.1068 11.8335 20.0589 11.7723 20.0069 11.6974C19.9549 11.6226 19.8493 11.4832 19.7721 11.3875C19.695 11.2919 19.5587 11.1341 19.4693 11.0368C19.3799 10.9396 19.2109 10.7745 19.0937 10.67C18.9764 10.5655 18.7726 10.3991 18.6408 10.3003C18.5089 10.2015 18.3057 10.0632 18.1892 9.99299C18.0727 9.92276 17.9774 9.85512 17.9774 9.84268C17.9774 9.83025 18.0195 9.72627 18.071 9.61161C18.1224 9.49693 18.2381 9.2555 18.328 9.07509C18.4179 8.89466 18.5714 8.60682 18.6691 8.43543C18.7668 8.26405 18.9465 7.97144 19.0684 7.7852C19.2098 7.56917 19.2836 7.44013 19.2724 7.42883C19.2627 7.41908 18.8935 7.24581 18.452 7.04378C18.0104 6.84176 17.6409 6.68161 17.6309 6.68788C17.6208 6.69413 17.5358 6.81996 17.4421 6.9675C17.3483 7.11502 17.193 7.3731 17.097 7.54101C17.0009 7.70891 16.8385 8.01281 16.7359 8.21633C16.6333 8.41986 16.4928 8.71543 16.4235 8.87316C16.3542 9.03089 16.2878 9.17045 16.2758 9.18331C16.2584 9.20207 16.2181 9.19938 16.0709 9.16971C15.9701 9.14937 15.7924 9.11971 15.676 9.10378C15.5595 9.08785 15.2766 9.06991 15.0473 9.06389C14.7828 9.05697 14.5338 9.06116 14.3661 9.07537C14.2207 9.08769 13.9817 9.11805 13.8348 9.14286C13.688 9.16765 13.4662 9.21276 13.3419 9.2431C13.2176 9.27343 12.9921 9.3398 12.8407 9.39058C12.6894 9.44137 12.4514 9.53368 12.3119 9.59572C12.1723 9.65775 11.967 9.75865 11.8556 9.81991C11.7443 9.88117 11.5371 10.0081 11.3954 10.1019C11.2536 10.1957 11.0299 10.3592 10.8983 10.4653C10.7666 10.5713 10.5509 10.7664 10.4188 10.8989C10.2868 11.0313 10.111 11.2219 10.0282 11.3224C9.94541 11.4229 9.82559 11.579 9.76197 11.6694C9.69835 11.7598 9.59053 11.9231 9.52235 12.0323C9.45419 12.1416 9.34931 12.3268 9.28929 12.4439C9.22925 12.561 9.14161 12.7479 9.09451 12.8592C9.0474 12.9705 8.97657 13.1557 8.9371 13.2707C8.89762 13.3858 8.83256 13.6111 8.7925 13.7714C8.75245 13.9318 8.70278 14.1754 8.68214 14.3128C8.6615 14.4501 8.63491 14.6874 8.62306 14.8401C8.61032 15.0039 8.60616 15.2465 8.61288 15.4321C8.61915 15.6051 8.63703 15.8507 8.65261 15.978C8.66817 16.1052 8.70513 16.3303 8.73472 16.4784C8.76433 16.6264 8.81835 16.847 8.85478 16.9687C8.89122 17.0903 8.94652 17.2606 8.97769 17.3471C9.00886 17.4336 9.07982 17.6084 9.13539 17.7356C9.19095 17.8628 9.28621 18.0585 9.3471 18.1704C9.40796 18.2824 9.53478 18.4905 9.6289 18.633C9.72302 18.7755 9.8731 18.9836 9.96242 19.0955C10.0517 19.2075 10.2201 19.398 10.3366 19.5188C10.4531 19.6397 10.6345 19.8133 10.7396 19.9046C10.8447 19.9959 11.0104 20.1301 11.1078 20.2027C11.2052 20.2753 11.3878 20.3995 11.5135 20.4787C11.6392 20.5579 11.8629 20.684 12.0106 20.759C12.1583 20.8339 12.3951 20.9416 12.5369 20.9982C12.6786 21.0548 12.9065 21.1347 13.0432 21.1758C13.1799 21.2169 13.4077 21.2751 13.5495 21.3051C13.6912 21.3351 13.8988 21.3725 14.0107 21.388C14.1225 21.4036 14.3632 21.4252 14.5454 21.4361C14.7809 21.4502 14.9722 21.4501 15.207 21.436C15.3887 21.4251 15.6286 21.4035 15.7401 21.388C15.8517 21.3724 16.0584 21.3352 16.1996 21.3053C16.3408 21.2753 16.4624 21.2571 16.4697 21.2648C16.4771 21.2725 16.5859 21.4828 16.7115 21.7321C16.837 21.9814 17.0044 22.2978 17.0834 22.4352C17.1623 22.5725 17.2995 22.8015 17.3882 22.944C17.4909 23.1088 17.5621 23.2048 17.584 23.208C17.6029 23.2107 17.9778 23.0593 18.4172 22.8715C18.8565 22.6837 19.2239 22.522 19.2336 22.5123C19.2448 22.5011 19.2044 22.4245 19.1225 22.3019C19.0518 22.1959 18.9044 21.9598 18.7951 21.7773C18.6857 21.5947 18.4984 21.2529 18.3789 21.0178C18.2593 20.7827 18.1615 20.5765 18.1615 20.5597C18.1615 20.5425 18.208 20.4994 18.2673 20.4616C18.3256 20.4246 18.4436 20.3439 18.5297 20.2823C18.6158 20.2208 18.7691 20.1041 18.8703 20.0231C18.9716 19.9421 19.1911 19.7377 19.3582 19.5688C19.5253 19.4 19.7294 19.1745 19.8117 19.0677C19.8941 18.9609 20.0184 18.7906 20.0879 18.6892C20.1574 18.5879 20.2214 18.5046 20.23 18.5042C20.2386 18.5038 20.277 18.5867 20.3153 18.6885C20.3536 18.7903 20.424 18.9651 20.4718 19.077C20.5196 19.189 20.6167 19.3994 20.6876 19.5445C20.7585 19.6897 20.8892 19.936 20.978 20.0919C21.0668 20.2477 21.1945 20.4605 21.2618 20.5648C21.3305 20.6712 21.3941 20.751 21.4068 20.7467C21.4192 20.7426 21.6785 20.391 21.9831 19.9654L22.5367 19.1916L22.3596 18.8383C22.2621 18.644 22.1347 18.3684 22.0763 18.226C22.018 18.0835 21.9258 17.8332 21.8714 17.6697C21.817 17.5062 21.7349 17.2189 21.6891 17.0313C21.6432 16.8438 21.5891 16.5904 21.5688 16.4683C21.5485 16.3461 21.5193 16.148 21.5037 16.028C21.4882 15.908 21.4657 15.627 21.4537 15.4036C21.4369 15.0896 21.4369 14.906 21.454 14.5949C21.4661 14.3736 21.4923 14.0663 21.5122 13.9121C21.5322 13.7579 21.5698 13.5207 21.5958 13.3848C21.6218 13.249 21.6753 13.013 21.7146 12.8604C21.754 12.7077 21.8205 12.4787 21.8625 12.3515C21.9044 12.2243 21.9845 12.0037 22.0404 11.8612C22.0963 11.7188 22.211 11.4607 22.2954 11.2877C22.3799 11.1147 22.4748 10.9288 22.5065 10.8747C22.5547 10.7921 22.5684 10.7799 22.5913 10.799C22.6063 10.8115 22.6795 10.9474 22.754 11.101C22.8285 11.2545 22.9237 11.4616 22.9656 11.5611C23.0074 11.6606 23.0778 11.8406 23.1218 11.961C23.1659 12.0815 23.24 12.3081 23.2864 12.4647C23.3328 12.6212 23.3956 12.8578 23.426 12.9903C23.4563 13.1228 23.5019 13.3601 23.5273 13.5176C23.5527 13.6751 23.586 13.9252 23.6013 14.0734C23.6165 14.2216 23.6344 14.5089 23.641 14.7117C23.6483 14.935 23.6444 15.2194 23.6311 15.4321C23.6191 15.6255 23.5932 15.9099 23.5737 16.0641C23.5542 16.2184 23.5168 16.4557 23.4906 16.5914C23.4644 16.7272 23.414 16.9549 23.3786 17.0973C23.3432 17.2398 23.2724 17.4854 23.2213 17.6431C23.1702 17.8009 23.0786 18.0548 23.0178 18.2074C22.9569 18.3601 22.8291 18.6425 22.7336 18.8349C22.6382 19.0273 22.5637 19.1939 22.5681 19.2049C22.5725 19.216 22.8255 19.5738 23.1304 20.0001C23.4354 20.4263 23.6848 20.7816 23.6848 20.7897C23.6848 20.7977 23.4404 21.114 23.1417 21.4925C22.843 21.871 22.5986 22.1955 22.5986 22.2135C22.5986 22.2315 22.7084 22.3525 22.8425 22.4824C22.9767 22.6123 23.1942 22.8087 23.3258 22.9188C23.4575 23.0289 23.6604 23.1908 23.7769 23.2786C23.8934 23.3665 24.119 23.5255 24.2784 23.632C24.4378 23.7385 24.5814 23.8229 24.5975 23.8196C24.6136 23.8163 24.8746 23.5098 25.1776 23.1385C25.4806 22.7671 25.7285 22.4496 25.7285 22.4329C25.7285 22.4146 25.6748 22.3706 25.595 22.3233C25.5216 22.2798 25.3529 22.1707 25.2201 22.0809C25.0873 21.9911 24.8968 21.8544 24.7966 21.7772C24.6965 21.7 24.5193 21.5548 24.4029 21.4545C24.2864 21.3541 24.0809 21.1606 23.9462 21.0244L23.7013 20.7768L23.847 20.5467C23.9272 20.4202 24.0613 20.1928 24.145 20.0414C24.2288 19.89 24.35 19.6552 24.4144 19.5196C24.4789 19.384 24.5842 19.1457 24.6486 18.99C24.713 18.8344 24.7896 18.6383 24.819 18.5544C24.8483 18.4705 24.8807 18.4022 24.8908 18.4027C24.9009 18.4033 24.9723 18.5011 25.0494 18.6201C25.1265 18.7391 25.2606 18.9281 25.3475 19.04C25.4343 19.152 25.5831 19.3286 25.6782 19.4326C25.7732 19.5366 25.9278 19.6928 26.0217 19.7798C26.1156 19.8668 26.2736 20.0031 26.3729 20.0827C26.4722 20.1624 26.6246 20.2761 26.7117 20.3356C26.7987 20.395 26.87 20.4557 26.87 20.4705C26.87 20.4853 26.8001 20.6399 26.7147 20.8141C26.6292 20.9883 26.4886 21.2581 26.4021 21.4137C26.3157 21.5693 26.1494 21.8494 26.0327 22.0362C25.916 22.2231 25.8205 22.384 25.8205 22.3938C25.8205 22.4037 26.1817 22.5756 26.6231 22.776C27.0646 22.9764 27.4394 23.1377 27.4562 23.1344C27.473 23.1312 27.5632 23.0038 27.6567 22.8513C27.7502 22.6987 27.9093 22.4241 28.0102 22.2409C28.1111 22.0577 28.2692 21.7518 28.3615 21.5609C28.4538 21.3702 28.5366 21.214 28.5455 21.214C28.5543 21.214 28.6614 21.2385 28.7835 21.2685C28.9056 21.2984 29.107 21.3399 29.2311 21.3606C29.3552 21.3813 29.5479 21.4078 29.6593 21.4195C29.7707 21.4312 30.0482 21.4406 30.2761 21.4405C30.5462 21.4403 30.78 21.4295 30.9481 21.4093C31.0898 21.3923 31.3315 21.3538 31.4852 21.3236C31.6388 21.2934 31.8774 21.2356 32.0154 21.195C32.1534 21.1545 32.3674 21.0828 32.4909 21.0357C32.6145 20.9887 32.8151 20.9028 32.9367 20.845C33.0584 20.7871 33.2489 20.6872 33.3602 20.623C33.4714 20.5587 33.6593 20.4398 33.7776 20.3588C33.8959 20.2777 34.0782 20.1425 34.1826 20.0582C34.2871 19.974 34.4665 19.8151 34.5812 19.7052C34.696 19.5953 34.8686 19.4134 34.9647 19.3011C35.0608 19.1887 35.1847 19.0363 35.24 18.9624C35.2954 18.8884 35.3971 18.7425 35.4661 18.638C35.5351 18.5335 35.6461 18.3492 35.7127 18.2286C35.7793 18.1079 35.879 17.9081 35.9343 17.7845C35.9896 17.661 36.0733 17.4531 36.1203 17.3226C36.1672 17.1921 36.2382 16.959 36.278 16.8045C36.3177 16.6501 36.3666 16.428 36.3866 16.311C36.4066 16.194 36.4337 16.0066 36.4469 15.8947C36.4611 15.7745 36.4703 15.5017 36.4695 15.2286C36.4685 14.9087 36.4585 14.6926 36.4371 14.5277C36.42 14.3967 36.385 14.1814 36.3594 14.0493C36.3338 13.9173 36.28 13.6944 36.2399 13.5538C36.1998 13.4133 36.1348 13.2123 36.0954 13.1071C36.0561 13.0019 35.9893 12.8368 35.9472 12.7401C35.905 12.6434 35.8329 12.4935 35.7868 12.4071C35.7408 12.3206 35.6497 12.1603 35.5844 12.0508C35.5191 11.9414 35.3946 11.7541 35.3079 11.6345C35.2212 11.515 35.1079 11.3672 35.0562 11.3062C35.0045 11.2451 34.8961 11.122 34.8153 11.0327C34.7346 10.9433 34.5771 10.7878 34.4653 10.6872C34.3535 10.5866 34.1981 10.4537 34.12 10.3919C34.0418 10.3301 33.8886 10.2182 33.7794 10.1433C33.6702 10.0684 33.5075 9.96397 33.4179 9.91118C33.3283 9.85841 33.1742 9.7745 33.0755 9.72475C32.9769 9.67498 32.7975 9.59265 32.677 9.54175C32.5564 9.49087 32.3459 9.41214 32.2092 9.36681C32.0725 9.32146 31.8323 9.25469 31.6753 9.2184C31.5184 9.18212 31.3029 9.13988 31.1966 9.12454C31.0903 9.10919 30.8916 9.08687 30.7552 9.07496C30.6049 9.06182 30.347 9.05723 30.1016 9.06328C29.8786 9.0688 29.594 9.08719 29.4692 9.10419C29.3444 9.12118 29.1313 9.15796 28.9956 9.1859C28.8599 9.21385 28.7413 9.23193 28.732 9.22608C28.7228 9.22024 28.6588 9.08639 28.5899 8.92866C28.521 8.77093 28.3838 8.47952 28.285 8.28109C28.1862 8.08265 28.03 7.78709 27.9379 7.62427C27.8458 7.46145 27.7068 7.22625 27.6291 7.10158C27.5514 6.97692 27.4784 6.87493 27.467 6.87493C27.4556 6.87493 27.1033 7.02565 26.6841 7.20986C26.2649 7.39406 25.8991 7.55664 25.8712 7.57113C25.8434 7.58562 25.8205 7.60515 25.8205 7.61453C25.8205 7.62393 25.8903 7.73876 25.9756 7.86973C26.0609 8.00069 26.2103 8.24747 26.3077 8.41812C26.4051 8.58876 26.5563 8.87129 26.6436 9.04593C26.731 9.22057 26.8581 9.48815 26.9261 9.64053C26.9941 9.79293 27.046 9.92615 27.0413 9.93656C27.0367 9.947 26.9237 10.0279 26.7903 10.1165C26.6569 10.205 26.4567 10.3503 26.3453 10.4393C26.2339 10.5284 26.0139 10.7307 25.8564 10.8889C25.699 11.0472 25.4975 11.2682 25.4088 11.3802C25.32 11.4921 25.2009 11.6524 25.144 11.7364C25.0872 11.8203 25.0318 11.8888 25.0209 11.8886C25.0101 11.8885 24.9618 11.7657 24.9136 11.6157C24.8654 11.4658 24.7678 11.1975 24.6967 11.0194C24.6256 10.8413 24.4926 10.5416 24.4012 10.3533C24.3098 10.1651 24.1759 9.90696 24.1037 9.77976C24.0315 9.65256 23.9242 9.4717 23.8654 9.37787C23.8066 9.28403 23.7585 9.1962 23.7585 9.18271C23.7585 9.16921 23.8683 9.04994 24.0024 8.91767C24.1366 8.78538 24.3085 8.62269 24.3845 8.55614C24.4604 8.48957 24.6013 8.37271 24.6975 8.29645C24.7937 8.22016 24.9718 8.08769 25.0934 8.00202C25.215 7.91638 25.4117 7.78801 25.5304 7.71678C25.6492 7.64554 25.7444 7.5772 25.742 7.56489C25.7396 7.55259 25.4934 7.22995 25.1947 6.84794C24.8961 6.46591 24.6392 6.15339 24.624 6.15343C24.6087 6.15346 24.4512 6.25138 24.274 6.37103ZM15.5471 10.9173C15.6534 10.9338 15.843 10.9725 15.9684 11.0032C16.0938 11.0339 16.2917 11.093 16.4083 11.1346C16.5248 11.1761 16.7412 11.2705 16.8891 11.3442C17.0371 11.4179 17.2548 11.5436 17.3731 11.6235C17.4914 11.7034 17.6716 11.8383 17.7736 11.9234C17.8755 12.0084 18.0383 12.1618 18.1352 12.2643C18.2322 12.3667 18.3798 12.5428 18.4633 12.6555C18.5468 12.7682 18.6489 12.9151 18.6903 12.9819C18.7316 13.0488 18.8149 13.2029 18.8752 13.3242C18.9356 13.4456 19.0151 13.622 19.052 13.7161C19.0888 13.8103 19.1441 13.9768 19.1747 14.0862C19.2053 14.1955 19.2465 14.3766 19.2662 14.4885C19.2859 14.6005 19.3114 14.8045 19.3229 14.9418C19.3348 15.085 19.3384 15.2903 19.3313 15.4229C19.3245 15.5501 19.3069 15.7424 19.2922 15.8502C19.2775 15.9581 19.2413 16.1454 19.2118 16.2665C19.1823 16.3877 19.128 16.5742 19.0912 16.681C19.0544 16.7879 18.9718 16.9835 18.9076 17.1158C18.8435 17.2481 18.744 17.4313 18.6865 17.5229C18.6291 17.6145 18.5234 17.768 18.4517 17.864C18.3799 17.9601 18.2211 18.1422 18.0987 18.2687C17.9763 18.3952 17.8098 18.5525 17.7288 18.6183C17.6478 18.6841 17.4821 18.8045 17.3606 18.8858C17.2391 18.9671 17.0237 19.0906 16.8819 19.1603C16.7401 19.23 16.542 19.3175 16.4415 19.3547C16.3411 19.3919 16.1671 19.4467 16.0549 19.4766C15.9427 19.5065 15.7515 19.5484 15.6299 19.5698C15.4637 19.5991 15.3019 19.6109 14.9763 19.6176C14.6412 19.6244 14.4918 19.6196 14.3135 19.5963C14.187 19.5796 13.9881 19.545 13.8717 19.5193C13.7552 19.4935 13.5481 19.4349 13.4114 19.3889C13.2747 19.343 13.0551 19.2534 12.9235 19.1898C12.7919 19.1263 12.6058 19.0254 12.51 18.9658C12.4142 18.906 12.2526 18.7943 12.151 18.7174C12.0493 18.6405 11.8716 18.486 11.7561 18.374C11.6406 18.2621 11.4837 18.0955 11.4074 18.0039C11.3311 17.9123 11.2035 17.7375 11.1238 17.6154C11.0441 17.4933 10.9262 17.2851 10.8618 17.1528C10.7973 17.0205 10.7139 16.829 10.6765 16.7273C10.639 16.6255 10.5808 16.4331 10.5472 16.2998C10.5136 16.1664 10.4738 15.9666 10.4587 15.8557C10.4436 15.7449 10.4256 15.5501 10.4188 15.4229C10.4117 15.2903 10.4153 15.085 10.4273 14.9418C10.4387 14.8045 10.4642 14.6005 10.4839 14.4885C10.5036 14.3766 10.5444 14.1972 10.5744 14.0899C10.6045 13.9825 10.6635 13.8053 10.7055 13.696C10.7475 13.5868 10.8272 13.4082 10.8827 13.2991C10.9382 13.1901 11.0526 12.9968 11.137 12.8696C11.2214 12.7424 11.3573 12.5581 11.4389 12.4601C11.5206 12.3621 11.6727 12.201 11.7768 12.102C11.8809 12.0031 12.0451 11.8621 12.1418 11.7888C12.2384 11.7155 12.3958 11.6067 12.4916 11.5471C12.5874 11.4875 12.7734 11.3866 12.9051 11.323C13.0367 11.2593 13.2269 11.1767 13.3276 11.1394C13.4284 11.102 13.6192 11.0441 13.7517 11.0106C13.8842 10.977 14.0917 10.9361 14.2129 10.9197C14.3341 10.9032 14.4622 10.8864 14.4977 10.8823C14.5331 10.8782 14.7402 10.8776 14.9579 10.8811C15.2001 10.8848 15.4288 10.8989 15.5471 10.9173ZM30.9204 10.9174C31.0268 10.9338 31.2173 10.9727 31.3439 11.0036C31.4705 11.0346 31.6652 11.0932 31.7766 11.134C31.888 11.1747 32.0872 11.261 32.2194 11.3256C32.3516 11.3903 32.5712 11.5175 32.7073 11.6083C32.8435 11.6991 33.0475 11.8536 33.1607 11.9515C33.2738 12.0495 33.4285 12.1983 33.5044 12.2822C33.5802 12.3661 33.6856 12.4889 33.7387 12.5551C33.7917 12.6212 33.8925 12.7628 33.9627 12.8696C34.0329 12.9765 34.1515 13.1888 34.2262 13.3414C34.301 13.494 34.3993 13.7313 34.4448 13.8687C34.4902 14.0061 34.5448 14.1976 34.5661 14.2943C34.5874 14.3909 34.6164 14.5533 34.6306 14.6551C34.6447 14.7568 34.6618 14.9483 34.6684 15.0806C34.6754 15.2194 34.6716 15.4267 34.6594 15.5709C34.6478 15.7083 34.6256 15.8949 34.6102 15.9855C34.5948 16.0762 34.5583 16.2432 34.5292 16.3566C34.5001 16.4701 34.4435 16.6499 34.4036 16.7561C34.3636 16.8624 34.301 17.0147 34.2644 17.0946C34.2279 17.1745 34.1408 17.3369 34.0709 17.4554C34.001 17.5739 33.8808 17.7556 33.8039 17.8591C33.727 17.9625 33.5751 18.1405 33.4664 18.2545C33.3577 18.3685 33.1898 18.528 33.0934 18.6089C32.997 18.6898 32.8311 18.8144 32.7247 18.8859C32.6184 18.9573 32.403 19.0799 32.2461 19.1582C32.0891 19.2366 31.8767 19.331 31.774 19.368C31.6713 19.4051 31.4683 19.465 31.3229 19.5012C31.1775 19.5373 30.9608 19.5795 30.8413 19.5949C30.7132 19.6114 30.4773 19.6229 30.2668 19.6229C30.0521 19.6229 29.8231 19.6115 29.6924 19.5944C29.573 19.5788 29.3814 19.5449 29.2668 19.5192C29.1522 19.4935 28.9492 19.4352 28.8157 19.3896C28.6822 19.344 28.4487 19.245 28.2969 19.1696C28.145 19.0941 27.9364 18.9758 27.8333 18.9067C27.7303 18.8376 27.5776 18.7269 27.4939 18.6607C27.4102 18.5946 27.2537 18.4531 27.1461 18.3462C27.0385 18.2394 26.8847 18.0687 26.8044 17.9669C26.724 17.8651 26.6059 17.7005 26.542 17.6011C26.478 17.5016 26.3732 17.3143 26.3091 17.1848C26.245 17.0553 26.163 16.8693 26.1269 16.7716C26.0908 16.6738 26.0366 16.5057 26.0066 16.398C25.9765 16.2903 25.9329 16.0955 25.9097 15.9652C25.8734 15.7608 25.8675 15.6646 25.8671 15.2656C25.8667 14.9026 25.8738 14.7593 25.9002 14.5995C25.9187 14.4876 25.9581 14.2984 25.9878 14.1792C26.0175 14.0599 26.0708 13.8809 26.1063 13.7814C26.1419 13.6819 26.2279 13.4839 26.2976 13.3414C26.3673 13.1989 26.4761 13.0033 26.5393 12.9066C26.6026 12.8099 26.7046 12.6646 26.7659 12.5837C26.8272 12.5028 26.9647 12.3456 27.0716 12.2344C27.1784 12.1233 27.3404 11.9694 27.4314 11.8926C27.5225 11.8158 27.6965 11.6868 27.8181 11.6059C27.9396 11.5251 28.1634 11.3981 28.3153 11.3236C28.4672 11.2491 28.7033 11.1507 28.84 11.1049C28.9767 11.0592 29.1838 11.0008 29.3003 10.9752C29.4167 10.9496 29.5824 10.9201 29.6685 10.9095C29.7546 10.8989 29.854 10.8868 29.8894 10.8826C29.9249 10.8783 30.1278 10.8776 30.3405 10.8811C30.5729 10.8849 30.8043 10.8993 30.9204 10.9174ZM21.2481 20.9632C21.1804 21.0389 21.0059 21.2103 20.8602 21.3441C20.7146 21.4778 20.4973 21.6662 20.3773 21.7626C20.2573 21.859 20.0617 22.0061 19.9426 22.0894C19.8236 22.1727 19.6377 22.2955 19.5295 22.3623C19.4214 22.429 19.3303 22.4916 19.3271 22.5013C19.3238 22.5111 19.5745 22.8291 19.8841 23.2079C20.1937 23.5868 20.4597 23.8968 20.4752 23.8968C20.4907 23.8968 20.6115 23.825 20.7437 23.7372C20.8758 23.6494 21.1132 23.4798 21.2712 23.3603C21.4291 23.2408 21.6785 23.0384 21.8253 22.9105C21.9721 22.7827 22.1856 22.588 22.2996 22.478C22.4291 22.353 22.5068 22.264 22.5067 22.2409C22.5066 22.2205 22.2627 21.8951 21.9624 21.5147C21.6631 21.1356 21.4077 20.8255 21.3947 20.8255C21.3818 20.8255 21.3158 20.8875 21.2481 20.9632ZM24.3198 24.2131C24.1579 24.3769 23.9256 24.6041 23.8035 24.7179C23.6814 24.8317 23.4743 25.0149 23.3432 25.1251C23.2121 25.2353 22.9848 25.4168 22.8379 25.5286C22.6911 25.6404 22.571 25.7409 22.571 25.7518C22.571 25.7627 22.9314 25.9907 23.3719 26.2583C23.8123 26.526 24.1852 26.7452 24.2005 26.7456C24.2158 26.7459 24.3442 26.6491 24.4859 26.5306C24.6276 26.412 24.8595 26.2087 25.0012 26.0787C25.143 25.9486 25.3925 25.7064 25.5556 25.5402C25.7188 25.3741 25.9408 25.1389 26.0489 25.0176C26.157 24.8962 26.243 24.7845 26.2401 24.7694C26.2372 24.754 25.8838 24.5592 25.4431 24.3298C25.0077 24.1032 24.6431 23.9172 24.6328 23.9165C24.6226 23.9159 24.4817 24.0493 24.3198 24.2131ZM19.6298 24.4107C19.0592 24.6884 18.8059 24.8207 18.8059 24.841C18.8059 24.857 18.903 24.978 19.0218 25.1097C19.1406 25.2415 19.3582 25.47 19.5054 25.6175C19.6525 25.7651 19.8722 25.9769 19.9936 26.0881C20.115 26.1994 20.3367 26.393 20.4863 26.5183C20.6359 26.6436 20.7698 26.7462 20.7838 26.7462C20.7978 26.7462 21.1704 26.5247 21.6119 26.2541C22.0533 25.9834 22.4145 25.7547 22.4145 25.7458C22.4145 25.7369 22.313 25.653 22.1889 25.5594C22.0649 25.4657 21.8764 25.3177 21.7701 25.2306C21.6638 25.1434 21.4649 24.9723 21.3282 24.8504C21.1915 24.7285 20.9396 24.489 20.7684 24.3183C20.5972 24.1475 20.4563 24.0083 20.4554 24.0088C20.4545 24.0094 20.0829 24.1902 19.6298 24.4107Z" fill="black"/>
</svg>
