<svg width="833" height="555" viewBox="0 0 833 555" fill="none" xmlns="http://www.w3.org/2000/svg">
<path opacity="0.1" fill-rule="evenodd" clip-rule="evenodd" d="M263.085 0.0590499C262.148 0.127508 258.927 0.351707 255.928 0.55708C252.929 0.762453 247.871 1.23105 244.689 1.59866C241.506 1.96628 236.829 2.58137 234.294 2.9661C231.759 3.35049 226.311 4.33662 222.188 5.15709C218.064 5.97755 212.205 7.2762 209.169 8.04326C206.132 8.81033 201.301 10.1234 198.433 10.9609C195.565 11.7985 190.513 13.4073 187.205 14.5354C183.898 15.6636 178.3 17.7317 174.766 19.131C171.231 20.5306 166.039 22.7103 163.227 23.9751C160.415 25.2398 155.124 27.7971 151.469 29.6581C147.814 31.5188 142.369 34.4508 139.37 36.1735C136.371 37.8963 131.31 40.9666 128.124 42.9964C124.937 45.0265 119.799 48.4973 116.706 50.7095C113.613 52.9217 108.859 56.4705 106.141 58.5955C103.423 60.7204 99.2056 64.1741 96.7688 66.2702C94.332 68.3668 89.7062 72.5468 86.4889 75.5593C83.2716 78.5717 78.185 83.6804 75.1855 86.9116C72.1861 90.1428 68.0223 94.7887 65.9328 97.236C63.8433 99.6834 60.2259 104.15 57.8944 107.162C55.5629 110.175 51.7769 115.335 49.4808 118.629C47.1848 121.924 43.8244 127.007 42.0136 129.925C40.2026 132.843 37.3169 137.695 35.6012 140.707C33.8853 143.719 30.6595 149.88 28.433 154.398C26.2061 158.916 23.2332 165.339 21.826 168.672C20.4188 172.004 18.1244 177.857 16.7267 181.679C15.3294 185.5 13.486 190.86 12.6298 193.59C11.7737 196.32 10.3168 201.334 9.39179 204.732C8.46717 208.131 7.08586 213.76 6.32278 217.241C5.55936 220.722 4.40469 226.721 3.75647 230.572C3.10858 234.423 2.26916 240.039 1.89154 243.051C1.51358 246.063 0.934545 251.685 0.604299 255.544C0.148292 260.873 0.0031062 266.144 3.8888e-05 277.451C-0.00268761 288.857 0.137386 293.982 0.599868 299.357C0.93216 303.217 1.50472 308.762 1.8728 311.68C2.24054 314.598 3.00464 319.829 3.57039 323.305C4.13613 326.782 5.14187 332.173 5.80475 335.286C6.46797 338.398 7.46893 342.794 8.02923 345.053C8.58918 347.312 9.87541 352.01 10.8869 355.493C11.8985 358.975 13.5736 364.325 14.6089 367.382C15.6443 370.438 17.6261 375.829 19.0129 379.362C20.3997 382.894 22.542 388.042 23.7737 390.8C25.0054 393.559 27.3447 398.488 28.9721 401.753C30.5995 405.02 33.0854 409.771 34.4963 412.312C35.9073 414.854 38.5176 419.321 40.297 422.239C42.0763 425.157 45.1416 429.932 47.1084 432.85C49.0752 435.768 52.2226 440.235 54.1029 442.776C55.9828 445.318 59.0638 449.322 60.9491 451.676C62.8345 454.029 66.5275 458.418 69.1559 461.429C71.7839 464.441 76.925 469.914 80.5802 473.593C84.2355 477.272 89.3841 482.201 92.0217 484.548C94.6592 486.894 98.8001 490.447 101.224 492.442C103.647 494.438 107.93 497.808 110.742 499.931C113.554 502.054 118.998 505.893 122.841 508.462C126.684 511.031 132.051 514.46 134.769 516.081C137.487 517.703 141.12 519.812 142.842 520.767C144.564 521.723 149.012 524.03 152.726 525.896C156.44 527.761 161.472 530.172 163.909 531.254C166.346 532.336 170.026 533.917 172.088 534.767C174.15 535.617 178.751 537.381 182.313 538.686C185.874 539.991 192.031 542.044 195.994 543.248C199.958 544.452 206.323 546.204 210.138 547.142C213.954 548.079 219.836 549.388 223.21 550.051C226.584 550.713 232.565 551.715 236.502 552.278C240.438 552.841 245.959 553.534 248.771 553.817C251.583 554.102 256.931 554.513 260.656 554.732C264.869 554.98 272.407 555.063 280.594 554.951C288.595 554.842 296.097 554.553 299.722 554.216C303.003 553.909 308.14 553.35 311.139 552.972C314.139 552.595 319.353 551.817 322.727 551.245C326.101 550.672 331.929 549.526 335.678 548.697C339.427 547.868 345.408 546.408 348.97 545.452C352.531 544.496 359.089 542.496 363.543 541.006C367.997 539.516 374.545 537.139 378.093 535.723C381.641 534.306 387.276 531.905 390.614 530.386C393.952 528.867 399.444 526.189 402.818 524.435C406.192 522.68 410.254 520.494 411.845 519.575C413.436 518.657 414.775 517.675 414.82 517.393C414.873 517.064 409.728 513.281 400.39 506.784C392.408 501.23 385.586 496.547 385.23 496.377C384.735 496.14 383.473 496.599 379.897 498.315C377.32 499.552 373.184 501.428 370.705 502.484C368.227 503.54 363.771 505.312 360.804 506.423C357.837 507.534 352.657 509.315 349.293 510.38C345.929 511.445 340.262 513.064 336.7 513.978C333.139 514.892 327.541 516.179 324.261 516.839C320.98 517.499 315.689 518.426 312.503 518.899C309.316 519.372 304.485 519.988 301.767 520.269C299.049 520.55 293.911 520.962 290.35 521.184C286.296 521.438 279.477 521.52 272.117 521.404C265.457 521.299 257.92 520.982 254.735 520.672C251.642 520.372 247.271 519.891 245.022 519.604C242.773 519.316 238.248 518.622 234.968 518.06C231.688 517.498 226.55 516.493 223.551 515.827C220.552 515.161 215.261 513.843 211.793 512.896C208.325 511.95 202.735 510.254 199.37 509.127C196.005 508 190.791 506.107 187.783 504.921C184.774 503.734 180.061 501.749 177.308 500.509C174.556 499.269 170.262 497.229 167.766 495.976C165.27 494.723 161.54 492.765 159.478 491.625C157.416 490.485 153.812 488.403 151.469 486.998C149.126 485.592 144.755 482.8 141.756 480.793C138.757 478.786 134.463 475.777 132.213 474.106C129.964 472.436 126.217 469.526 123.886 467.641C121.556 465.755 117.722 462.516 115.366 460.444C113.01 458.371 108.011 453.586 104.257 449.811C100.503 446.036 95.5071 440.714 93.1552 437.984C90.8032 435.254 87.3546 431.095 85.4917 428.742C83.6288 426.389 80.7885 422.615 79.1798 420.356C77.5712 418.097 75.0271 414.4 73.5261 412.141C72.0255 409.882 69.417 405.723 67.7296 402.899C66.0422 400.076 63.3897 395.384 61.8349 392.474C60.2801 389.564 58.0962 385.251 56.9817 382.89C55.8673 380.529 53.8361 375.978 52.4677 372.778C51.0993 369.578 48.9689 364.162 47.7331 360.743C46.4973 357.323 44.7074 351.932 43.7548 348.762C42.8023 345.593 41.4305 340.689 40.7066 337.865C39.9824 335.041 38.7698 329.65 38.0118 325.885C37.2542 322.119 36.2505 316.343 35.7815 313.049C35.3129 309.754 34.6967 304.671 34.4128 301.753C34.1286 298.835 33.7435 293.752 33.5567 290.458C33.37 287.163 33.2152 281.366 33.2125 277.574C33.2098 273.783 33.3652 267.93 33.5581 264.567C33.7506 261.205 34.1381 256.066 34.4186 253.148C34.6991 250.23 35.3184 245.147 35.7948 241.853C36.2709 238.558 37.1867 233.194 37.8298 229.932C38.4729 226.67 39.6797 221.279 40.5113 217.952C41.3433 214.625 42.789 209.361 43.7242 206.255C44.6593 203.149 46.1102 198.682 46.9482 196.328C47.7863 193.975 49.1608 190.279 50.0023 188.114C50.8441 185.949 52.3777 182.252 53.4104 179.899C54.443 177.545 56.0517 173.99 56.9852 171.997C57.9186 170.005 59.9509 166 61.5013 163.098C63.0516 160.196 65.9243 155.134 67.8853 151.851C69.8464 148.568 72.5354 144.255 73.8608 142.267C75.1866 140.279 77.6598 136.728 79.3571 134.374C81.054 132.021 84.2225 127.862 86.3976 125.133C88.573 122.403 92.1031 118.167 94.2424 115.72C96.3817 113.273 100.816 108.567 104.096 105.261C107.377 101.956 112.131 97.4103 114.661 95.1601C117.192 92.9099 120.873 89.7461 122.841 88.1298C124.809 86.5135 128.643 83.5267 131.361 81.4928C134.079 79.4586 138.551 76.2839 141.299 74.4379C144.047 72.5916 148.572 69.7137 151.353 68.0423C154.135 66.3705 158.782 63.7226 161.679 62.1573C164.577 60.592 168.871 58.3959 171.222 57.2766C173.573 56.1573 178.104 54.1173 181.29 52.743C184.477 51.3687 189.845 49.239 193.219 48.0105C196.593 46.7817 201.611 45.0734 204.371 44.2142C207.131 43.3551 212.039 41.9627 215.277 41.1203C218.516 40.2776 223.772 39.0563 226.959 38.4063C230.146 37.7563 235.207 36.8314 238.206 36.3512C241.205 35.871 245.729 35.2449 248.26 34.9601C250.79 34.6753 255.008 34.2499 257.632 34.0144C260.539 33.7539 267.931 33.5906 276.547 33.5961C287.278 33.603 292.212 33.7491 296.996 34.2006C300.464 34.5278 306.116 35.1785 309.558 35.6464C312.999 36.1143 318.597 37.0279 321.997 37.6762C325.398 38.3245 331.017 39.5577 334.485 40.4165C337.953 41.2753 343.551 42.8184 346.925 43.8449C350.299 44.8714 355.36 46.5428 358.172 47.5587C360.983 48.575 364.849 50.0365 366.762 50.8067C368.675 51.5772 372.202 53.0778 374.6 54.142C376.999 55.2061 380.3 56.7502 381.936 57.5737C383.573 58.3973 385.063 59.0709 385.248 59.0709C385.433 59.0709 392.338 54.3607 400.592 48.6041C408.846 42.8471 415.598 38.0085 415.598 37.8518C415.598 37.695 414.406 36.8759 412.948 36.0311C411.49 35.1867 407.952 33.2446 405.084 31.7149C402.216 30.1855 397.466 27.7984 394.528 26.4108C391.59 25.0228 387.02 22.9609 384.373 21.8286C381.726 20.6963 377.063 18.8209 374.01 17.6609C370.957 16.5012 366.145 14.7816 363.316 13.8396C360.486 12.8976 354.981 11.2207 351.081 10.1134C347.181 9.00612 340.893 7.40216 337.107 6.54952C333.322 5.69654 327.081 4.46122 323.238 3.80403C319.396 3.14683 313.721 2.30069 310.628 1.92384C307.535 1.54698 302.321 0.990758 299.041 0.687491C295.013 0.315081 288.485 0.103205 278.933 0.0354319C271.154 -0.0200188 264.022 -0.00906546 263.085 0.0590499ZM543.062 0.0631577C542.031 0.131958 538.887 0.349651 536.075 0.546467C533.264 0.743283 528.893 1.13657 526.362 1.42033C523.832 1.70409 519.077 2.32671 515.797 2.8042C512.517 3.28169 507.072 4.20964 503.698 4.86649C500.324 5.523 494.734 6.74634 491.276 7.5846C487.817 8.42321 482.143 9.94502 478.666 10.9664C475.189 11.9878 469.813 13.6931 466.72 14.7555C463.627 15.818 458.259 17.8166 454.792 19.196C451.324 20.5758 445.88 22.8818 442.693 24.3204C439.506 25.7591 434.103 28.3776 430.686 30.1397C427.269 31.9021 422.783 34.3118 420.718 35.4951C418.652 36.6784 416.968 37.8076 416.977 38.0044C416.985 38.2013 422.155 41.9052 428.466 46.2351C434.776 50.565 441.593 55.2455 443.615 56.6359L447.29 59.1637L448.911 58.4616C449.802 58.0755 452.985 56.6123 455.985 55.2102C458.984 53.8079 463.651 51.7761 466.357 50.6948C469.063 49.6135 473.664 47.8863 476.582 46.8564C479.499 45.8264 485.26 44.0119 489.384 42.8242C493.508 41.6365 499.336 40.114 502.335 39.441C505.334 38.7677 509.858 37.8354 512.389 37.3692C514.919 36.9033 519.143 36.2102 521.774 35.8292C524.405 35.4482 528.929 34.903 531.828 34.6178C534.726 34.3324 539.628 33.9425 542.721 33.7508C545.814 33.5591 551.949 33.4034 556.354 33.4041C560.759 33.4051 566.97 33.5598 570.157 33.7477C573.343 33.9357 578.251 34.3235 581.063 34.6093C583.874 34.8951 588.84 35.5146 592.097 35.986C595.354 36.4573 600.696 37.3767 603.967 38.0294C607.238 38.6822 612.624 39.8997 615.937 40.7352C619.25 41.5707 624.567 43.0484 627.754 44.0188C630.94 44.9892 636.047 46.7013 639.102 47.8233C642.157 48.9457 647.065 50.8642 650.008 52.0869C652.951 53.3095 658.81 56.0067 663.028 58.0807C667.245 60.1546 673.227 63.3002 676.319 65.0709C679.412 66.8419 684.05 69.6435 686.626 71.2968C689.201 72.95 693.369 75.7445 695.888 77.5062C698.406 79.268 702.741 82.4841 705.519 84.6528C708.297 86.8219 712.641 90.3862 715.172 92.5734C717.703 94.761 722.819 99.5544 726.542 103.226C730.264 106.897 735.03 111.826 737.132 114.179C739.234 116.533 742.481 120.31 744.349 122.573C746.216 124.836 749.339 128.832 751.29 131.453C753.24 134.074 756.418 138.589 758.353 141.485C760.287 144.381 763.319 149.19 765.09 152.173C766.862 155.155 769.567 159.943 771.102 162.811C772.637 165.68 775.166 170.766 776.723 174.114C778.279 177.461 780.766 183.251 782.249 186.981C783.732 190.71 785.823 196.38 786.895 199.58C787.968 202.781 789.662 208.335 790.66 211.923C791.657 215.511 793.096 221.287 793.856 224.759C794.617 228.23 795.703 233.9 796.27 237.359C796.836 240.817 797.602 246.362 797.971 249.681C798.339 253 798.819 258.18 799.038 261.192C799.256 264.204 799.435 271.521 799.435 277.451C799.435 283.381 799.256 290.697 799.038 293.71C798.819 296.722 798.339 301.901 797.971 305.221C797.602 308.539 796.844 314.038 796.286 317.438C795.728 320.839 794.807 325.825 794.239 328.518C793.671 331.212 792.589 335.802 791.836 338.72C791.083 341.638 789.624 346.772 788.596 350.129C787.567 353.485 785.717 358.95 784.484 362.272C783.251 365.594 781.329 370.473 780.215 373.113C779.1 375.753 776.521 381.301 774.483 385.443C772.445 389.584 769.371 395.433 767.652 398.439C765.932 401.446 763.069 406.186 761.288 408.972C759.507 411.759 756.665 415.999 754.972 418.396C753.279 420.792 750.344 424.755 748.449 427.202C746.554 429.649 743.227 433.731 741.054 436.273C738.882 438.814 735.143 442.973 732.746 445.514C730.349 448.056 726.296 452.126 723.74 454.559C721.183 456.992 717.021 460.768 714.49 462.95C711.96 465.133 707.873 468.495 705.409 470.422C702.945 472.349 698.501 475.633 695.533 477.719C692.566 479.805 688.192 482.726 685.815 484.21C683.437 485.693 679.446 488.088 676.946 489.532C674.446 490.976 669.793 493.49 666.606 495.12C663.42 496.749 658.819 498.984 656.382 500.086C653.945 501.189 649.539 503.064 646.592 504.253C643.644 505.443 638.76 507.269 635.739 508.312C632.718 509.354 627.921 510.894 625.08 511.734C622.239 512.573 617.385 513.887 614.292 514.653C611.199 515.419 605.908 516.571 602.534 517.213C599.16 517.855 593.638 518.769 590.264 519.245C586.89 519.72 581.293 520.378 577.825 520.708C572.964 521.171 568.124 521.311 556.695 521.32C547.152 521.327 540.169 521.173 537.098 520.888C534.474 520.644 529.796 520.139 526.703 519.766C523.61 519.392 518.779 518.697 515.967 518.22C513.156 517.744 509.015 516.968 506.766 516.495C504.516 516.022 499.973 514.956 496.669 514.126C493.365 513.296 488.227 511.863 485.251 510.941C482.276 510.019 478.029 508.621 475.815 507.834C473.6 507.046 470.442 505.886 468.796 505.256C467.15 504.625 463.789 503.245 461.327 502.189C458.865 501.133 454.909 499.347 452.537 498.221C450.164 497.094 448.106 496.173 447.965 496.173C447.823 496.173 440.981 500.8 432.76 506.456C424.54 512.111 417.766 516.952 417.708 517.212C417.643 517.505 419.004 518.485 421.287 519.788C423.313 520.944 428.728 523.771 433.321 526.07C437.913 528.368 444.431 531.427 447.805 532.867C451.179 534.306 455.627 536.132 457.689 536.925C459.751 537.717 464.55 539.419 468.354 540.706C472.157 541.994 478.292 543.897 481.986 544.936C485.68 545.975 491.055 547.367 493.93 548.029C496.805 548.692 501.943 549.762 505.347 550.409C508.751 551.055 514.374 551.977 517.842 552.457C521.31 552.938 526.371 553.557 529.089 553.833C531.807 554.109 537.078 554.514 540.804 554.733C545.01 554.98 552.566 555.063 560.741 554.951C568.743 554.842 576.245 554.553 579.87 554.216C583.15 553.909 588.288 553.351 591.287 552.974C594.286 552.596 599.807 551.759 603.556 551.113C607.305 550.467 612.213 549.538 614.462 549.051C616.711 548.563 621.006 547.548 624.005 546.795C627.004 546.042 631.764 544.747 634.582 543.916C637.4 543.086 642.677 541.389 646.309 540.146C649.94 538.903 655.575 536.817 658.831 535.51C662.087 534.204 666.956 532.143 669.652 530.931C672.348 529.718 677.059 527.466 680.123 525.926C683.185 524.386 687.762 521.965 690.293 520.546C692.823 519.126 697.041 516.657 699.665 515.059C702.289 513.461 707.188 510.3 710.551 508.034C713.914 505.769 719.359 501.883 722.65 499.398C725.941 496.913 730.704 493.145 733.235 491.023C735.766 488.901 739.906 485.283 742.437 482.981C744.967 480.68 750.108 475.659 753.86 471.825C757.612 467.991 762.608 462.62 764.963 459.89C767.317 457.161 771.04 452.657 773.237 449.883C775.433 447.108 779.255 441.991 781.731 438.512C784.206 435.033 787.65 429.947 789.383 427.21C791.117 424.472 793.865 419.962 795.49 417.187C797.116 414.412 800.259 408.583 802.477 404.234C804.694 399.885 807.595 393.878 808.923 390.885C810.251 387.892 812.461 382.593 813.835 379.11C815.208 375.628 817.332 369.775 818.555 366.103C819.777 362.432 821.409 357.22 822.18 354.521C822.951 351.822 824.337 346.508 825.258 342.712C826.18 338.917 827.466 332.961 828.117 329.479C828.768 325.996 829.684 320.451 830.153 317.156C830.621 313.862 831.243 308.779 831.533 305.861C831.823 302.943 832.21 298.245 832.392 295.421C832.574 292.597 832.821 287.052 832.942 283.099C833.063 279.145 832.989 271.983 832.779 267.182C832.569 262.382 832.17 255.912 831.893 252.806C831.616 249.7 830.994 244.155 830.51 240.484C830.027 236.813 829.113 230.95 828.48 227.455C827.846 223.96 826.691 218.341 825.913 214.967C825.135 211.594 823.888 206.597 823.143 203.864C822.398 201.131 820.967 196.277 819.963 193.077C818.959 189.876 817.062 184.363 815.749 180.825C814.435 177.287 812.173 171.592 810.722 168.17C809.271 164.748 806.527 158.786 804.624 154.922C802.721 151.057 799.964 145.738 798.497 143.103C797.031 140.467 794.527 136.154 792.934 133.519C791.341 130.883 788.503 126.416 786.627 123.592C784.751 120.768 781.997 116.764 780.506 114.693C779.015 112.622 776.479 109.233 774.871 107.162C773.262 105.092 770.408 101.549 768.527 99.2898C766.647 97.0307 763.095 92.9489 760.634 90.2191C758.174 87.4894 753.338 82.4834 749.89 79.0948C746.441 75.7061 741.628 71.179 739.194 69.0346C736.76 66.8901 732.238 63.1 729.145 60.6119C726.052 58.1241 721.682 54.7382 719.432 53.0877C717.183 51.4372 712.659 48.2929 709.378 46.1002C706.098 43.9079 701.179 40.7753 698.446 39.1395C695.714 37.5033 691.497 35.0686 689.074 33.7286C686.652 32.3882 681.755 29.8597 678.194 28.1089C674.632 26.3584 669.878 24.1219 667.629 23.1389C665.379 22.1558 661.622 20.5789 659.279 19.6349C656.936 18.6908 652.718 17.0797 649.907 16.0549C647.095 15.0304 641.816 13.271 638.175 12.1456C634.534 11.0198 628.936 9.41927 625.735 8.58819C622.534 7.75746 617.385 6.5372 614.292 5.87727C611.199 5.21699 605.908 4.21135 602.534 3.64247C599.16 3.07358 593.869 2.29659 590.776 1.91596C587.683 1.53534 582.468 0.980489 579.188 0.682356C575.237 0.323638 568.448 0.106628 559.08 0.0395397C551.301 -0.0162532 544.093 -0.00564222 543.062 0.0631577ZM379.886 63.8256C377.208 66.0639 373.067 69.6661 370.684 71.8307C368.301 73.9954 363.054 79.1338 359.024 83.2495C354.993 87.3651 350.944 91.6249 350.023 92.7151C348.971 93.9631 348.471 94.8181 348.674 95.0221C348.851 95.2005 355.788 98.6593 364.089 102.709C372.39 106.759 379.242 110.072 379.316 110.072C379.39 110.072 381.816 107.704 384.707 104.809C387.598 101.914 392.165 97.5794 394.857 95.1751C397.548 92.7709 401.974 89.0129 404.692 86.824C407.41 84.635 410.982 81.8632 412.629 80.6638C414.275 79.4648 415.568 78.313 415.501 78.1045C415.434 77.8961 408.642 73.6825 400.408 68.7405C392.174 63.7989 385.283 59.7555 385.096 59.7555C384.908 59.7558 382.564 61.5871 379.886 63.8256ZM432.045 68.7649C423.752 73.6931 416.973 77.8796 416.98 78.0679C416.988 78.2562 419.402 80.2188 422.345 82.4297C425.289 84.6402 429.445 87.9121 431.582 89.7002C433.718 91.4883 437.399 94.7065 439.761 96.852C442.123 98.9971 446.707 103.465 449.947 106.781C453.187 110.097 455.987 112.81 456.168 112.81C456.35 112.81 463.246 109.421 471.493 105.279C479.74 101.137 486.487 97.5766 486.487 97.3671C486.487 97.1577 484.955 95.2514 483.081 93.131C481.208 91.0105 477.565 87.0739 474.987 84.3828C472.408 81.6917 467.922 77.2642 465.016 74.5434C462.111 71.8229 457.108 67.3827 453.899 64.6762C450.69 61.9697 447.853 59.7664 447.594 59.7798C447.335 59.7931 440.338 63.8362 432.045 68.7649ZM267.331 82.0299C264.418 82.1757 259.74 82.5423 256.936 82.8449C254.132 83.1475 249.472 83.779 246.579 84.2483C243.687 84.7175 239.47 85.4856 237.207 85.9556C234.945 86.4256 230.717 87.4309 227.812 88.1897C224.908 88.9482 219.924 90.4293 216.736 91.4805C213.549 92.532 208.257 94.4604 204.977 95.7659C201.696 97.0717 195.485 99.8949 191.174 102.04C186.862 104.185 180.612 107.601 177.284 109.632C173.956 111.662 169.359 114.633 167.068 116.233C164.777 117.833 160.905 120.701 158.464 122.605C156.023 124.509 152.262 127.584 150.106 129.438C147.95 131.292 143.42 135.587 140.039 138.983C136.657 142.378 132.311 147.005 130.382 149.264C128.452 151.523 125.017 155.836 122.749 158.848C120.48 161.86 117.06 166.712 115.149 169.63C113.237 172.548 110.406 177.156 108.857 179.87C107.309 182.584 104.544 187.898 102.713 191.678C100.882 195.46 98.312 201.262 97.0013 204.572C95.6905 207.882 93.8256 213.042 92.8566 216.038C91.888 219.035 90.4192 224.105 89.593 227.306C88.7669 230.506 87.6412 235.358 87.0915 238.088C86.5417 240.817 85.7752 245.207 85.3881 247.843C85.0013 250.479 84.4457 255.022 84.154 257.94C83.8626 260.858 83.5317 267.328 83.4189 272.316C83.2938 277.861 83.3691 283.849 83.6124 287.719C83.8312 291.202 84.2385 296.054 84.517 298.502C84.7957 300.949 85.4027 305.295 85.8656 308.16C86.3287 311.025 87.0966 315.184 87.572 317.402C88.0474 319.62 89.0566 323.822 89.8145 326.74C90.5725 329.658 92.0966 334.774 93.2015 338.108C94.3064 341.442 96.1516 346.525 97.3018 349.404C98.4521 352.282 101.05 358.025 103.075 362.167C105.1 366.309 108.02 371.854 109.564 374.49C111.108 377.125 113.646 381.227 115.204 383.605C116.762 385.984 119.627 390.065 121.572 392.676C123.516 395.287 126.376 398.963 127.927 400.846C129.478 402.728 132.714 406.427 135.118 409.066C137.522 411.704 141.303 415.562 143.52 417.639C145.736 419.716 149.16 422.814 151.128 424.523C153.096 426.232 156.817 429.259 159.395 431.248C161.974 433.238 166.728 436.631 169.961 438.787C173.193 440.944 177.889 443.888 180.396 445.329C182.902 446.77 187.401 449.18 190.392 450.684C193.383 452.188 198.472 454.555 201.702 455.943C204.933 457.332 210.555 459.488 214.197 460.735C217.839 461.981 223.042 463.614 225.759 464.362C228.476 465.11 233.224 466.268 236.311 466.935C239.398 467.601 244.236 468.511 247.062 468.955C249.888 469.399 254.726 470.044 257.813 470.388C262.343 470.893 266.09 471.012 277.229 471.004C288.042 470.997 292.212 470.865 296.485 470.394C299.484 470.063 303.931 469.485 306.368 469.108C308.805 468.732 313.099 467.962 315.911 467.398C318.723 466.834 323.4 465.751 326.306 464.991C329.211 464.231 334.425 462.677 337.893 461.536C341.361 460.396 344.62 459.247 345.135 458.983C345.651 458.719 346.073 458.358 346.073 458.179C346.073 458.001 341.682 452.036 336.315 444.925C330.948 437.813 326.232 431.651 325.835 431.232L325.113 430.47L320.341 431.837C317.717 432.589 312.963 433.733 309.776 434.381C306.59 435.028 302.372 435.789 300.404 436.072C298.436 436.355 295.292 436.757 293.417 436.965C291.543 437.173 285.792 437.43 280.637 437.537C274.845 437.656 269.246 437.578 265.982 437.333C263.077 437.115 258.859 436.7 256.61 436.412C254.36 436.124 250.449 435.507 247.919 435.042C245.388 434.576 241.094 433.651 238.376 432.986C235.658 432.32 230.29 430.725 226.448 429.44C222.605 428.156 217.27 426.163 214.593 425.011C211.916 423.859 208.005 422.052 205.902 420.995C203.8 419.937 200.316 418.07 198.16 416.846C196.005 415.621 192.051 413.178 189.375 411.417C186.698 409.656 182.941 407.023 181.025 405.566C179.109 404.109 175.701 401.376 173.451 399.492C171.202 397.608 166.828 393.522 163.732 390.412C160.636 387.302 156.509 382.84 154.562 380.495C152.614 378.151 149.767 374.531 148.234 372.452C146.701 370.372 144.664 367.498 143.707 366.064C142.75 364.63 141.111 362.038 140.064 360.305C139.018 358.572 137.105 355.201 135.814 352.814C134.522 350.428 132.549 346.465 131.429 344.007C130.309 341.549 128.688 337.749 127.827 335.562C126.965 333.375 125.576 329.506 124.739 326.966C123.903 324.425 122.678 320.293 122.018 317.783C121.358 315.273 120.357 310.909 119.793 308.086C119.229 305.262 118.466 300.564 118.097 297.646C117.728 294.728 117.265 289.979 117.067 287.093C116.869 284.207 116.706 279.483 116.706 276.595C116.706 273.707 116.869 268.983 117.067 266.097C117.265 263.211 117.722 258.515 118.083 255.662C118.444 252.808 119.134 248.418 119.615 245.907C120.096 243.395 121.089 239.009 121.821 236.16C122.553 233.311 123.712 229.23 124.397 227.089C125.082 224.949 126.618 220.692 127.811 217.628C129.003 214.565 131.106 209.709 132.484 206.837C133.861 203.965 136.261 199.386 137.817 196.662C139.372 193.937 141.875 189.859 143.377 187.6C144.88 185.341 147.133 182.106 148.385 180.412C149.637 178.718 152.222 175.449 154.131 173.147C156.039 170.846 159.633 166.858 162.117 164.285C164.602 161.712 168.552 157.914 170.895 155.845C173.238 153.777 176.773 150.81 178.75 149.252C180.727 147.693 184.485 144.964 187.1 143.186C189.715 141.407 193.584 138.928 195.696 137.675C197.809 136.423 202.12 134.099 205.278 132.512C208.435 130.924 213.071 128.756 215.58 127.693C218.09 126.63 222.827 124.852 226.107 123.741C229.387 122.63 234.49 121.103 237.446 120.347C240.402 119.591 244.907 118.586 247.457 118.113C250.007 117.64 254.567 116.946 257.589 116.572C260.612 116.197 266.267 115.745 270.155 115.568C274.475 115.37 279.846 115.365 283.958 115.554C287.661 115.724 292.148 116.025 293.928 116.222C295.709 116.419 298.853 116.822 300.915 117.117C302.977 117.413 307.19 118.181 310.277 118.826C313.364 119.47 318.163 120.641 320.942 121.426C325.289 122.655 326.056 122.787 326.448 122.368C326.699 122.1 331.322 116.028 336.723 108.874C342.123 101.72 346.551 95.5643 346.562 95.1943C346.581 94.6199 345.539 94.1674 339.427 92.0959C335.491 90.762 329.816 89.0273 326.817 88.2411C323.818 87.4552 319.513 86.4269 317.25 85.9566C314.988 85.4863 310.77 84.7175 307.878 84.2486C304.985 83.7797 300.471 83.1632 297.845 82.8788C295.219 82.5943 290.004 82.2062 286.257 82.0165C282.51 81.8266 277.91 81.6924 276.036 81.7184C274.161 81.7441 270.244 81.8844 267.331 82.0299ZM545.618 85.8005C542.994 85.9501 539.236 86.2393 537.268 86.4434C535.3 86.647 531.466 87.1296 528.748 87.5154C526.03 87.9012 521.54 88.6665 518.771 89.2162C516.002 89.7659 511.324 90.8253 508.376 91.5708C505.429 92.3163 501.483 93.3959 499.608 93.9696C497.734 94.5436 494.391 95.6506 492.178 96.4296C489.008 97.5465 488.178 97.9685 488.259 98.4248C488.316 98.7431 492.809 105.118 498.245 112.59C507.211 124.915 508.208 126.164 508.981 126.04C509.449 125.965 512.517 125.199 515.797 124.337C519.077 123.475 523.832 122.382 526.362 121.909C528.893 121.436 532.727 120.817 534.883 120.533C537.038 120.249 540.719 119.835 543.062 119.613C545.405 119.39 551.54 119.212 556.695 119.216C562.923 119.222 568.01 119.418 571.861 119.803C575.047 120.121 580.327 120.833 583.594 121.384C586.86 121.936 592.038 123.01 595.1 123.769C598.162 124.529 603.081 125.932 606.031 126.888C608.981 127.843 613.695 129.557 616.507 130.695C619.319 131.834 623.46 133.64 625.709 134.709C627.958 135.779 631.946 137.857 634.57 139.329C637.194 140.8 641.532 143.443 644.21 145.202C646.887 146.961 650.814 149.71 652.937 151.311C655.059 152.913 658.543 155.722 660.679 157.555C662.814 159.388 666.382 162.662 668.606 164.831C670.831 167 674.145 170.469 675.973 172.539C677.799 174.61 680.707 178.076 682.435 180.241C684.162 182.406 687.313 186.796 689.438 189.996C691.562 193.197 694.179 197.355 695.254 199.238C696.328 201.121 698.487 205.268 700.052 208.455C701.616 211.642 703.825 216.61 704.962 219.496C706.098 222.382 707.645 226.629 708.399 228.934C709.153 231.238 710.364 235.435 711.091 238.259C711.817 241.083 712.792 245.396 713.258 247.843C713.724 250.29 714.424 254.834 714.813 257.94C715.203 261.047 715.67 266.707 715.851 270.519C716.062 274.967 716.062 279.934 715.851 284.382C715.67 288.195 715.203 293.855 714.813 296.961C714.424 300.068 713.724 304.611 713.258 307.059C712.792 309.506 711.812 313.839 711.08 316.688C710.348 319.536 709.188 323.618 708.502 325.759C707.816 327.899 706.448 331.729 705.462 334.271C704.476 336.812 702.779 340.817 701.691 343.17C700.602 345.523 698.721 349.297 697.51 351.556C696.299 353.815 694.616 356.819 693.77 358.231C692.923 359.643 690.728 363.031 688.891 365.761C687.054 368.491 684.216 372.419 682.585 374.49C680.953 376.56 678.113 379.966 676.273 382.057C674.432 384.149 670.653 388.077 667.874 390.786C665.095 393.495 660.989 397.216 658.749 399.054C656.51 400.893 652.718 403.829 650.322 405.579C647.925 407.329 643.691 410.164 640.913 411.879C638.134 413.594 633.653 416.155 630.955 417.569C628.257 418.984 623.979 421.058 621.449 422.178C618.918 423.298 614.777 424.987 612.247 425.931C609.716 426.875 605.269 428.35 602.363 429.209C599.458 430.069 595.087 431.231 592.65 431.793C590.213 432.354 586.379 433.125 584.13 433.506C581.88 433.886 578.2 434.424 575.95 434.701C573.701 434.978 568.87 435.388 565.215 435.612C561.198 435.858 555.94 435.929 551.923 435.791C548.268 435.666 543.053 435.333 540.336 435.053C537.618 434.772 533.4 434.227 530.963 433.842C528.526 433.457 524.419 432.682 521.836 432.12C519.252 431.558 515.506 430.638 513.511 430.076C510.022 429.092 509.86 429.076 509.278 429.668C508.945 430.006 504.144 436.213 498.608 443.461C493.072 450.709 488.588 456.793 488.643 456.981C488.697 457.169 491.8 458.351 495.539 459.607C499.277 460.864 505.479 462.669 509.322 463.62C513.164 464.57 518.411 465.734 520.982 466.207C523.552 466.679 528 467.372 530.865 467.747C533.731 468.122 538.069 468.62 540.506 468.855C543.106 469.105 549.795 469.276 556.695 469.268C565.163 469.258 570.025 469.093 574.076 468.679C577.169 468.363 581.923 467.785 584.641 467.394C587.359 467.004 592.529 466.075 596.129 465.33C599.729 464.585 604.943 463.353 607.716 462.592C610.489 461.832 615.256 460.374 618.308 459.354C621.361 458.333 626.192 456.559 629.044 455.41C631.896 454.262 637.603 451.667 641.727 449.645C645.851 447.622 651.525 444.61 654.337 442.951C657.149 441.292 661.29 438.698 663.539 437.186C665.788 435.674 669.009 433.439 670.696 432.219C672.383 430.999 675.551 428.564 677.735 426.808C679.919 425.053 683.83 421.711 686.426 419.383C689.021 417.055 693.062 413.159 695.405 410.726C697.748 408.292 701.056 404.688 702.755 402.717C704.454 400.747 706.995 397.671 708.401 395.883C709.807 394.094 711.965 391.245 713.195 389.55C714.426 387.856 716.888 384.236 718.667 381.506C720.446 378.777 723.206 374.233 724.8 371.409C726.394 368.585 728.389 364.888 729.234 363.194C730.079 361.5 731.569 358.342 732.545 356.177C733.52 354.012 735.086 350.315 736.025 347.962C736.963 345.609 738.474 341.494 739.383 338.818C740.291 336.142 741.647 331.752 742.395 329.063C743.143 326.374 744.14 322.479 744.61 320.408C745.08 318.337 745.853 314.563 746.327 312.022C746.802 309.48 747.491 305.091 747.858 302.267C748.225 299.443 748.714 294.976 748.945 292.34C749.176 289.705 749.365 283.081 749.365 277.622C749.365 272.162 749.177 265.539 748.948 262.904C748.717 260.268 748.238 255.801 747.881 252.977C747.524 250.153 746.842 245.686 746.366 243.051C745.889 240.415 744.737 235.178 743.807 231.413C742.876 227.648 741.328 222.103 740.367 219.091C739.405 216.079 737.656 211.15 736.48 208.137C735.304 205.125 733.257 200.294 731.93 197.402C730.603 194.509 728.345 189.976 726.912 187.328C725.478 184.68 722.908 180.23 721.201 177.439C719.492 174.648 716.382 169.955 714.287 167.009C712.193 164.064 708.714 159.483 706.557 156.828C704.399 154.174 700.547 149.738 697.997 146.97C695.447 144.202 691.329 140.061 688.845 137.768C686.361 135.474 682.872 132.373 681.091 130.876C679.31 129.38 676.089 126.807 673.934 125.159C671.778 123.512 668.097 120.848 665.754 119.241C663.411 117.633 659.194 114.931 656.382 113.236C653.57 111.542 648.893 108.912 645.987 107.393C643.082 105.874 638.941 103.838 636.785 102.868C634.63 101.898 630.412 100.135 627.413 98.9506C624.414 97.7656 619.353 95.9497 616.166 94.9153C612.98 93.8806 607.919 92.4064 604.919 91.6389C601.92 90.8712 597.166 89.7875 594.354 89.2303C591.543 88.673 587.018 87.9018 584.3 87.5168C581.582 87.1317 577.825 86.6576 575.95 86.4632C574.076 86.2688 569.782 85.959 566.408 85.7749C563.034 85.5911 558.049 85.46 555.331 85.4843C552.613 85.5086 548.242 85.651 545.618 85.8005ZM378.858 111.703C378.486 112.029 373.864 117.826 368.587 124.585C363.311 131.344 359.039 137.098 359.094 137.371C359.149 137.645 361.145 139.124 363.531 140.657C365.916 142.19 369.673 144.776 371.881 146.403C374.088 148.03 377.888 151.03 380.324 153.07C382.761 155.11 387.354 159.362 390.53 162.52C393.707 165.677 396.419 168.261 396.557 168.261C396.695 168.261 401.074 162.306 406.288 155.027C411.502 147.748 415.884 141.6 416.026 141.363C416.179 141.107 415.916 140.496 415.372 139.847C414.871 139.249 412.396 136.834 409.871 134.48C407.347 132.126 403.5 128.712 401.323 126.893C399.146 125.074 395.601 122.257 393.446 120.634C391.29 119.011 387.543 116.347 385.12 114.713C382.697 113.079 380.449 111.6 380.125 111.426C379.706 111.201 379.339 111.281 378.858 111.703ZM449.339 117.864C446.058 120.077 442.454 122.57 441.33 123.403C440.205 124.236 437.828 126.072 436.047 127.484C434.266 128.896 431.205 131.447 429.245 133.154C427.284 134.86 424.332 137.545 422.684 139.12C421.036 140.694 419.688 142.188 419.688 142.439C419.688 142.691 423.839 148.693 428.912 155.779C433.985 162.865 438.214 168.867 438.309 169.116C438.406 169.368 433.863 175.414 428.042 182.778C422.3 190.042 417.466 195.986 417.301 195.986C417.135 195.986 412.53 190.325 407.066 183.407C401.603 176.489 396.878 170.784 396.567 170.731C396.167 170.662 395.139 172.016 393.056 175.352C391.437 177.947 389.238 181.601 388.169 183.472C387.102 185.343 385.014 189.31 383.53 192.286C382.046 195.262 379.93 199.815 378.828 202.404C377.726 204.993 375.86 209.768 374.682 213.015C373.504 216.262 372.441 218.92 372.32 218.92C372.199 218.92 371.312 217.787 370.35 216.403C369.388 215.018 367.432 212.438 366.004 210.669C364.575 208.9 362.053 205.981 360.398 204.182C358.744 202.383 355.614 199.329 353.445 197.395C351.275 195.461 347.502 192.384 345.061 190.556C342.62 188.728 338.859 186.169 336.702 184.87C334.545 183.571 332.781 182.32 332.781 182.09C332.781 181.86 333.561 179.936 334.514 177.815C335.467 175.693 337.608 171.227 339.271 167.889C340.935 164.551 343.776 159.226 345.585 156.056C347.394 152.885 350.721 147.472 352.977 144.026C355.594 140.03 356.961 137.642 356.753 137.433C356.573 137.253 349.739 134.047 341.566 130.31C333.393 126.573 326.553 123.61 326.367 123.726C326.18 123.841 324.607 126.169 322.872 128.899C321.137 131.628 318.262 136.402 316.484 139.509C314.706 142.615 311.698 148.237 309.8 152.002C307.901 155.767 305.299 161.235 304.017 164.153C302.735 167.071 301.505 169.653 301.284 169.891C300.961 170.238 300.215 170.189 297.491 169.64C295.625 169.263 292.335 168.715 290.18 168.42C288.024 168.125 282.787 167.793 278.543 167.682C273.646 167.554 269.036 167.631 265.932 167.894C263.242 168.122 258.816 168.684 256.098 169.143C253.38 169.602 249.274 170.436 246.973 170.997C244.672 171.558 240.497 172.786 237.696 173.726C234.895 174.665 230.49 176.373 227.906 177.521C225.323 178.668 221.523 180.535 219.461 181.668C217.399 182.802 213.565 185.149 210.941 186.885C208.317 188.621 204.176 191.646 201.739 193.607C199.302 195.569 195.308 199.179 192.864 201.629C190.42 204.079 187.166 207.605 185.633 209.464C184.1 211.323 181.882 214.212 180.705 215.884C179.527 217.557 177.531 220.578 176.269 222.598C175.008 224.619 173.066 228.045 171.955 230.212C170.844 232.379 169.221 235.836 168.35 237.895C167.477 239.954 166.166 243.38 165.436 245.508C164.705 247.636 163.5 251.805 162.759 254.771C162.018 257.738 161.098 262.245 160.716 264.786C160.334 267.328 159.842 271.717 159.622 274.541C159.387 277.572 159.309 282.059 159.434 285.495C159.55 288.695 159.881 293.239 160.169 295.592C160.457 297.945 161.142 302.111 161.689 304.85C162.237 307.588 163.237 311.67 163.912 313.92C164.586 316.171 165.61 319.321 166.187 320.921C166.764 322.522 168.078 325.756 169.106 328.109C170.135 330.463 171.898 334.082 173.025 336.153C174.152 338.224 176.499 342.075 178.242 344.71C179.984 347.346 182.762 351.197 184.415 353.268C186.069 355.339 189.186 358.862 191.342 361.098C193.499 363.334 196.856 366.546 198.802 368.235C200.748 369.924 203.815 372.406 205.618 373.75C207.421 375.094 210.8 377.391 213.128 378.856C215.455 380.321 219.596 382.654 222.33 384.041C225.063 385.428 229.447 387.419 232.071 388.467C234.695 389.514 238.913 390.993 241.443 391.752C243.974 392.513 248.192 393.589 250.816 394.145C253.44 394.7 257.282 395.391 259.353 395.679C261.424 395.967 265.878 396.367 269.251 396.568C273.61 396.828 277.153 396.828 281.498 396.566C284.861 396.365 289.302 395.964 291.367 395.677C293.432 395.39 297.26 394.701 299.873 394.147C302.487 393.593 304.737 393.256 304.873 393.399C305.01 393.541 307.023 397.431 309.348 402.044C311.672 406.656 314.77 412.509 316.232 415.051C317.694 417.592 320.234 421.828 321.876 424.464C323.775 427.512 325.093 429.289 325.499 429.347C325.849 429.398 332.789 426.596 340.922 423.122C349.055 419.648 355.856 416.658 356.035 416.478C356.242 416.27 355.494 414.853 353.98 412.586C352.669 410.625 349.942 406.257 347.918 402.879C345.894 399.502 342.427 393.179 340.213 388.83C338 384.48 336.189 380.666 336.189 380.354C336.189 380.036 337.05 379.239 338.149 378.54C339.226 377.855 341.412 376.363 343.005 375.223C344.599 374.085 347.436 371.926 349.31 370.428C351.185 368.929 355.249 365.147 358.342 362.024C361.435 358.9 365.213 354.728 366.737 352.752C368.262 350.776 370.562 347.626 371.849 345.751C373.137 343.876 374.32 342.336 374.479 342.328C374.639 342.321 375.349 343.855 376.058 345.737C376.768 347.62 378.072 350.855 378.956 352.925C379.841 354.996 381.639 358.888 382.951 361.574C384.263 364.26 386.682 368.816 388.325 371.7C389.969 374.583 392.333 378.52 393.579 380.448C394.852 382.418 396.029 383.894 396.263 383.815C396.494 383.738 401.294 377.233 406.931 369.36L417.18 355.044L413.9 348.508C412.097 344.913 409.738 339.816 408.658 337.18C407.578 334.544 405.871 329.913 404.863 326.889C403.856 323.864 402.338 318.55 401.489 315.08C400.64 311.609 399.638 306.922 399.263 304.663C398.887 302.404 398.345 298.739 398.058 296.518C397.771 294.298 397.354 289.1 397.132 284.966C396.821 279.157 396.822 275.761 397.137 270.006C397.361 265.912 397.846 260.227 398.216 257.375C398.585 254.522 399.28 250.132 399.762 247.619C400.243 245.107 401.233 240.74 401.962 237.917C402.69 235.093 403.922 230.857 404.698 228.504C405.476 226.15 406.957 222.069 407.992 219.433C409.026 216.797 411.151 212.022 412.713 208.822C414.276 205.622 416.034 202.183 416.62 201.181C417.513 199.653 417.766 199.428 418.19 199.781C418.468 200.013 419.823 202.527 421.202 205.368C422.581 208.209 424.343 212.04 425.118 213.88C425.893 215.721 427.195 219.051 428.011 221.279C428.827 223.507 430.197 227.7 431.057 230.596C431.916 233.493 433.079 237.869 433.641 240.32C434.202 242.772 435.047 247.162 435.517 250.076C435.987 252.989 436.603 257.617 436.886 260.358C437.168 263.1 437.499 268.414 437.622 272.167C437.756 276.297 437.684 281.559 437.439 285.495C437.215 289.072 436.737 294.333 436.375 297.186C436.014 300.04 435.321 304.43 434.837 306.941C434.353 309.453 433.419 313.665 432.764 316.301C432.108 318.936 430.798 323.48 429.852 326.398C428.906 329.316 427.211 334.014 426.085 336.838C424.958 339.662 422.591 344.885 420.825 348.445C419.058 352.006 417.679 355.087 417.76 355.291C417.841 355.496 422.526 362.115 428.17 370.001C433.814 377.887 438.433 384.46 438.433 384.609C438.433 384.757 433.908 390.608 428.379 397.611C422.849 404.614 418.325 410.617 418.325 410.95C418.325 411.282 420.357 413.521 422.841 415.925C425.324 418.328 429.35 421.961 431.787 423.997C434.224 426.034 437.981 429.03 440.137 430.655C442.292 432.28 446.47 435.222 449.421 437.192C452.371 439.162 455.029 440.724 455.326 440.662C455.624 440.601 460.457 434.931 466.065 428.061C471.674 421.192 476.263 415.318 476.263 415.008C476.263 414.671 475.27 413.856 473.792 412.981C472.433 412.176 469.31 410.158 466.852 408.497C464.394 406.835 460.867 404.307 459.013 402.879C457.16 401.45 453.88 398.763 451.724 396.907C449.569 395.051 445.765 391.471 443.271 388.952L438.737 384.37L441.435 380.114C442.919 377.774 445.401 373.567 446.951 370.766C448.502 367.966 450.746 363.622 451.938 361.113C453.131 358.604 455.082 354.195 456.273 351.316C457.464 348.436 458.884 344.809 459.427 343.257C459.97 341.704 460.568 340.441 460.756 340.451C460.943 340.46 462.265 342.27 463.692 344.472C465.119 346.674 467.603 350.17 469.21 352.241C470.818 354.312 473.572 357.58 475.331 359.503C477.09 361.427 479.951 364.317 481.69 365.927C483.428 367.536 486.354 370.057 488.192 371.53C490.029 373.004 492.852 375.109 494.463 376.208C496.075 377.308 497.393 378.431 497.393 378.704C497.393 378.978 496.099 381.838 494.518 385.06C492.937 388.283 490.334 393.275 488.733 396.153C487.132 399.032 484.055 404.215 481.895 407.671C479.734 411.127 477.967 414.104 477.967 414.286C477.967 414.468 484.652 417.649 492.824 421.356C500.995 425.063 507.935 428.047 508.245 427.987C508.556 427.928 510.226 425.57 511.956 422.748C513.687 419.927 516.631 414.845 518.5 411.457C520.368 408.068 523.295 402.408 525.003 398.878C526.712 395.348 528.245 392.46 528.409 392.46C528.572 392.46 530.555 392.913 532.815 393.467C535.074 394.021 538.802 394.788 541.1 395.171C543.397 395.553 546.964 396.044 549.026 396.26C551.088 396.477 556.226 396.652 560.443 396.649C565.445 396.646 569.771 396.446 572.883 396.073C575.507 395.758 579.982 395.045 582.826 394.486C585.67 393.928 590.087 392.858 592.641 392.108C595.195 391.358 599.156 390.031 601.443 389.161C603.73 388.29 607.443 386.702 609.695 385.632C611.947 384.562 615.474 382.714 617.534 381.525C619.593 380.336 623.07 378.137 625.26 376.637C627.451 375.138 630.825 372.636 632.758 371.077C634.692 369.519 638.013 366.58 640.137 364.546C642.262 362.513 645.456 359.149 647.235 357.069C649.014 354.991 651.307 352.171 652.332 350.804C653.357 349.436 655.24 346.735 656.517 344.803C657.794 342.869 659.848 339.461 661.081 337.229C662.315 334.996 664.161 331.3 665.184 329.014C666.208 326.728 667.757 322.882 668.626 320.468C669.496 318.054 670.81 313.741 671.546 310.884C672.282 308.027 673.187 303.918 673.557 301.753C673.926 299.588 674.428 296.123 674.673 294.052C674.935 291.829 675.106 286.782 675.091 281.729C675.073 275.811 674.888 271.812 674.49 268.763C674.174 266.338 673.528 262.356 673.053 259.913C672.579 257.47 671.584 253.346 670.841 250.746C670.098 248.147 668.895 244.428 668.166 242.482C667.438 240.536 666.203 237.48 665.422 235.692C664.642 233.903 663.307 231.131 662.454 229.53C661.602 227.93 659.915 224.965 658.706 222.94C657.497 220.916 655.194 217.45 653.589 215.239C651.984 213.027 649.887 210.294 648.929 209.164C647.971 208.035 645.965 205.758 644.471 204.104C642.976 202.451 640.06 199.575 637.991 197.714C635.922 195.852 633.046 193.393 631.599 192.25C630.152 191.106 627.315 189.037 625.294 187.652C623.273 186.266 620.262 184.333 618.603 183.357C616.943 182.381 614.092 180.828 612.265 179.908C610.438 178.987 607.118 177.464 604.887 176.522C602.655 175.581 598.759 174.125 596.229 173.286C593.698 172.447 589.251 171.212 586.345 170.54C583.44 169.869 579.452 169.088 577.484 168.804C575.516 168.52 571.838 168.107 569.312 167.887C566.531 167.644 561.758 167.559 557.213 167.671C553.085 167.773 547.818 168.113 545.508 168.428C543.198 168.742 539.253 169.422 536.741 169.939C534.229 170.456 532.033 170.791 531.862 170.683C531.69 170.574 530.506 168.098 529.231 165.18C527.955 162.262 525.415 156.871 523.587 153.2C521.758 149.529 518.867 144.061 517.162 141.049C515.457 138.037 512.885 133.686 511.446 131.379C510.006 129.073 508.656 127.186 508.445 127.186C508.234 127.186 501.713 129.975 493.952 133.382C486.192 136.79 479.421 139.798 478.905 140.066C478.389 140.334 477.967 140.695 477.967 140.869C477.967 141.043 479.259 143.167 480.838 145.59C482.416 148.013 485.183 152.578 486.985 155.735C488.788 158.892 491.586 164.119 493.203 167.35C494.82 170.581 497.173 175.531 498.432 178.35C499.691 181.169 500.651 183.634 500.565 183.826C500.479 184.019 498.388 185.517 495.919 187.154C493.449 188.792 489.742 191.48 487.68 193.127C485.618 194.774 481.546 198.518 478.632 201.445C475.717 204.373 471.988 208.463 470.345 210.533C468.702 212.604 466.496 215.569 465.444 217.123C464.391 218.676 463.366 219.944 463.165 219.94C462.965 219.936 462.071 217.665 461.178 214.891C460.286 212.118 458.479 207.153 457.163 203.859C455.847 200.564 453.386 195.019 451.694 191.536C450.002 188.054 447.523 183.279 446.186 180.926C444.849 178.572 442.864 175.226 441.775 173.491C440.687 171.755 439.796 170.13 439.796 169.88C439.796 169.63 441.828 167.424 444.312 164.977C446.795 162.53 449.978 159.52 451.384 158.289C452.789 157.057 455.397 154.895 457.177 153.484C458.958 152.073 462.257 149.622 464.507 148.037C466.758 146.453 470.398 144.078 472.597 142.76C474.795 141.443 476.558 140.178 476.514 139.951C476.469 139.723 471.91 133.754 466.382 126.687C460.854 119.619 456.1 113.838 455.817 113.838C455.534 113.839 452.619 115.65 449.339 117.864ZM287.794 201.97C289.762 202.275 293.272 202.99 295.593 203.559C297.914 204.127 301.578 205.221 303.736 205.99C305.893 206.758 309.899 208.503 312.637 209.867C315.375 211.231 319.406 213.556 321.596 215.034C323.785 216.512 327.121 219.009 329.008 220.582C330.896 222.155 333.908 224.993 335.703 226.889C337.498 228.785 340.23 232.041 341.776 234.126C343.321 236.211 345.212 238.929 345.978 240.166C346.743 241.403 348.284 244.253 349.401 246.498C350.518 248.744 351.991 252.006 352.673 253.748C353.356 255.49 354.378 258.571 354.945 260.594C355.512 262.617 356.275 265.967 356.639 268.038C357.004 270.109 357.476 273.882 357.688 276.424C357.909 279.073 357.976 282.87 357.845 285.323C357.719 287.677 357.393 291.234 357.121 293.23C356.849 295.225 356.178 298.69 355.632 300.931C355.085 303.172 354.08 306.622 353.398 308.599C352.717 310.576 351.188 314.195 350.001 316.643C348.813 319.09 346.971 322.479 345.908 324.173C344.844 325.867 342.888 328.707 341.561 330.485C340.233 332.261 337.293 335.63 335.027 337.971C332.761 340.311 329.68 343.222 328.18 344.439C326.681 345.656 323.613 347.882 321.364 349.386C319.115 350.89 315.127 353.176 312.503 354.466C309.878 355.756 306.21 357.374 304.351 358.061C302.492 358.749 299.271 359.764 297.194 360.317C295.117 360.87 291.577 361.646 289.328 362.042C286.251 362.583 283.254 362.802 277.229 362.926C271.024 363.052 268.26 362.963 264.959 362.531C262.616 362.223 258.936 361.583 256.78 361.107C254.624 360.631 250.79 359.546 248.26 358.695C245.729 357.845 241.665 356.187 239.228 355.012C236.791 353.836 233.347 351.971 231.574 350.866C229.8 349.762 226.81 347.695 224.928 346.273C223.046 344.85 219.757 341.992 217.619 339.92C215.481 337.848 212.576 334.767 211.164 333.073C209.752 331.378 207.39 328.144 205.915 325.885C204.439 323.625 202.256 319.775 201.064 317.327C199.871 314.88 198.327 311.337 197.633 309.455C196.939 307.572 195.862 304.013 195.241 301.546C194.619 299.078 193.882 295.381 193.602 293.331C193.322 291.28 192.99 287.677 192.864 285.323C192.733 282.87 192.799 279.073 193.02 276.424C193.232 273.882 193.704 270.109 194.069 268.038C194.434 265.967 195.188 262.648 195.744 260.662C196.301 258.677 197.393 255.398 198.17 253.377C198.947 251.355 200.423 248.051 201.451 246.034C202.477 244.017 204.596 240.441 206.158 238.088C207.72 235.734 210.235 232.326 211.747 230.512C213.26 228.699 216.074 225.718 218.001 223.888C219.929 222.057 222.969 219.45 224.757 218.093C226.546 216.737 229.459 214.724 231.233 213.622C233.006 212.518 236.451 210.653 238.887 209.475C241.324 208.298 244.844 206.769 246.709 206.079C248.575 205.388 252.107 204.315 254.559 203.695C257.011 203.075 260.853 202.319 263.096 202.014C265.339 201.71 267.712 201.399 268.368 201.323C269.024 201.247 272.858 201.236 276.888 201.3C281.37 201.37 285.605 201.63 287.794 201.97ZM572.372 201.971C574.34 202.276 577.867 202.994 580.211 203.567C582.554 204.14 586.158 205.225 588.22 205.979C590.281 206.733 593.97 208.328 596.417 209.524C598.865 210.72 602.929 213.074 605.449 214.754C607.969 216.434 611.746 219.291 613.841 221.103C615.936 222.915 618.799 225.668 620.203 227.221C621.607 228.774 623.559 231.045 624.54 232.269C625.521 233.492 627.387 236.111 628.687 238.088C629.986 240.064 632.182 243.992 633.566 246.816C634.95 249.64 636.77 254.03 637.611 256.571C638.452 259.113 639.462 262.655 639.857 264.444C640.252 266.232 640.789 269.236 641.051 271.118C641.313 273.001 641.628 276.544 641.751 278.991C641.88 281.559 641.81 285.395 641.584 288.062C641.369 290.603 640.959 294.055 640.673 295.732C640.388 297.409 639.713 300.498 639.174 302.598C638.635 304.697 637.588 308.023 636.848 309.988C636.108 311.954 634.949 314.772 634.272 316.25C633.596 317.729 631.984 320.732 630.69 322.925C629.396 325.118 627.172 328.478 625.748 330.393C624.323 332.307 621.512 335.599 619.5 337.708C617.487 339.817 614.381 342.767 612.595 344.264C610.81 345.761 607.74 348.067 605.771 349.388C603.803 350.71 599.816 352.978 596.91 354.427C594.005 355.877 590.073 357.624 588.172 358.309C586.271 358.994 582.514 360.102 579.822 360.772C577.13 361.441 573.118 362.221 570.906 362.506C568.536 362.81 564.169 363.023 560.273 363.023C556.297 363.023 552.059 362.813 549.64 362.497C547.428 362.207 543.882 361.581 541.761 361.105C539.64 360.629 535.882 359.55 533.411 358.707C530.94 357.865 526.618 356.033 523.806 354.637C520.994 353.242 517.133 351.053 515.226 349.774C513.319 348.495 510.491 346.448 508.942 345.224C507.394 344 504.497 341.382 502.505 339.405C500.513 337.428 497.666 334.27 496.179 332.387C494.691 330.504 492.505 327.458 491.322 325.62C490.138 323.781 488.198 320.315 487.011 317.919C485.824 315.523 484.306 312.082 483.638 310.274C482.97 308.465 481.967 305.355 481.41 303.363C480.853 301.371 480.047 297.768 479.618 295.356C478.945 291.574 478.837 289.795 478.828 282.414C478.821 275.698 478.953 273.047 479.441 270.092C479.783 268.021 480.513 264.521 481.063 262.314C481.612 260.108 482.6 256.796 483.257 254.955C483.915 253.114 485.508 249.452 486.797 246.816C488.087 244.18 490.101 240.561 491.273 238.772C492.444 236.984 494.331 234.295 495.466 232.798C496.601 231.301 499.147 228.393 501.125 226.337C503.102 224.28 506.1 221.435 507.787 220.013C509.473 218.592 512.694 216.205 514.944 214.71C517.194 213.215 521.335 210.864 524.147 209.486C526.959 208.108 531.33 206.288 533.86 205.442C536.391 204.595 540.225 203.515 542.38 203.041C544.536 202.568 547.603 202.021 549.197 201.826C550.79 201.63 552.63 201.406 553.286 201.327C553.942 201.249 557.7 201.236 561.636 201.3C565.938 201.37 570.221 201.638 572.372 201.971ZM393.327 387.819C392.073 389.22 388.842 392.391 386.146 394.865C383.45 397.34 379.427 400.824 377.206 402.608C374.985 404.391 371.364 407.112 369.16 408.654C366.956 410.195 363.515 412.467 361.514 413.702C359.512 414.936 357.825 416.094 357.765 416.275C357.705 416.455 362.345 422.338 368.077 429.347C373.808 436.356 378.732 442.091 379.019 442.091C379.306 442.091 381.542 440.762 383.989 439.138C386.435 437.514 390.828 434.376 393.753 432.166C396.676 429.956 401.293 426.211 404.011 423.845C406.729 421.479 410.679 417.878 412.79 415.842C415.187 413.53 416.626 411.884 416.624 411.457C416.622 411.079 412.107 405.059 406.548 398.022C401.008 391.009 396.28 385.272 396.041 385.272C395.801 385.272 394.58 386.418 393.327 387.819ZM450.187 447.943C447.19 450.973 442.889 455.175 440.629 457.28C438.37 459.386 434.536 462.776 432.109 464.814C429.682 466.852 425.473 470.211 422.755 472.28C420.037 474.348 417.814 476.206 417.814 476.408C417.814 476.611 424.485 480.828 432.639 485.779C440.793 490.731 447.696 494.787 447.979 494.793C448.261 494.799 450.639 493.009 453.261 490.816C455.884 488.623 460.177 484.86 462.801 482.455C465.425 480.05 470.043 475.568 473.063 472.495C476.084 469.421 480.192 465.07 482.193 462.825C484.195 460.58 485.788 458.513 485.734 458.233C485.679 457.95 479.138 454.344 470.98 450.101C462.92 445.908 456.17 442.468 455.98 442.456C455.791 442.444 453.184 444.913 450.187 447.943ZM363.369 451.599C352.806 456.736 348.118 459.183 348.118 459.558C348.118 459.855 349.916 462.093 352.115 464.53C354.314 466.967 358.341 471.194 361.066 473.924C363.79 476.654 367.857 480.572 370.104 482.631C372.351 484.69 376.456 488.271 379.225 490.589C381.994 492.907 384.472 494.804 384.731 494.804C384.99 494.804 391.888 490.707 400.06 485.7C408.231 480.693 414.917 476.462 414.917 476.298C414.917 476.133 413.038 474.581 410.742 472.848C408.446 471.115 404.957 468.378 402.988 466.765C401.02 465.152 397.339 461.988 394.809 459.732C392.278 457.477 387.615 453.047 384.446 449.888C381.277 446.729 378.669 444.153 378.652 444.163C378.635 444.173 371.757 447.519 363.369 451.599Z" fill="white"/>
</svg>
